<?xml version="1.0" encoding="utf-8"?>
<!-- Generator: Adobe Illustrator 19.2.1, SVG Export Plug-In . SVG Version: 6.00 Build 0)  -->
<svg version="1.2" baseProfile="tiny" id="Layer_1" xmlns="http://www.w3.org/2000/svg" xmlns:xlink="http://www.w3.org/1999/xlink"
	 x="0px" y="0px" viewBox="0 0 570.1 207" xml:space="preserve">
<g>
	<path fill="#D6D6D6" d="M345.7,168.7h-11.1c0,0-2.2-9.3-1.3-21.3c0.9-12.1,4.4-26.7,4.4-26.7s4.2-0.1,11.6-0.1
		c-0.5,1.9-7.5,21.6-8.5,27.1C340,151.9,346.5,162.6,345.7,168.7z"/>
	<path fill="#E3E4E4" d="M334.5,116h11.1c0,0,2.6,14.1,2.4,27.2c-0.1,12.8-2.4,25.9-2.4,25.9S333.2,138.7,334.5,116z"/>
	<rect x="489.3" y="177.9" fill="#FFFFFF" width="4.8" height="2"/>
	<rect x="467.9" y="177.9" fill="#FFFFFF" width="4.8" height="2"/>
	<rect x="362.5" y="158" fill="#BBBBBB" width="29" height="17.2"/>
	<rect x="145.4" y="150" fill="#E3E4E4" width="12.7" height="23.3"/>
	<rect x="155.6" y="155.7" fill="#E3E4E4" width="14.5" height="18.1"/>
	<g>
		<g>
			<rect x="227.5" y="153.8" fill="#E3E4E4" width="18.1" height="13.6"/>
			<rect x="233.6" y="152.1" fill="#E3E4E4" width="15" height="14.2"/>
			<rect x="237.5" y="150.9" fill="#E3E4E4" width="3.3" height="3.4"/>
			<rect x="249.5" y="151.2" fill="#E3E4E4" width="6.4" height="4.7"/>
			<rect x="259.4" y="168.6" fill="#E3E4E4" width="100.4" height="10.3"/>
			<polygon fill="#E3E4E4" points="286.7,159.9 280.9,159.9 280.9,152.6 286.7,152.9 			"/>
			<rect x="237.2" y="134.1" fill="#E3E4E4" width="2.8" height="20.5"/>
			<rect x="244.9" y="134.1" fill="#E3E4E4" width="2.8" height="20.5"/>
		</g>
		<g>
			<rect x="155.1" y="164.3" fill="#E3E4E4" width="29.4" height="14.5"/>
			<rect x="157.1" y="162.8" fill="#E3E4E4" width="6.4" height="4.7"/>
			<rect x="162.1" y="161.4" fill="#E3E4E4" width="3.9" height="4.7"/>
			<rect x="164.6" y="160" fill="#E3E4E4" width="6.1" height="7.7"/>
			<rect x="194.6" y="156" fill="#E3E4E4" width="11.1" height="20.3"/>
			<rect x="203.5" y="161" fill="#E3E4E4" width="12.7" height="15.8"/>
			<rect x="208.5" y="156.9" fill="#E3E4E4" width="9.7" height="13.7"/>
			<rect x="212.7" y="155.5" fill="#E3E4E4" width="4.2" height="15.9"/>
			<rect x="216.9" y="158.3" fill="#E3E4E4" width="4.8" height="8.6"/>
			<rect x="217.3" y="160.3" fill="#E3E4E4" width="10.3" height="18.9"/>
			<rect x="136.2" y="165.6" fill="#E3E4E4" width="91.2" height="11.6"/>
		</g>
		<g>
			<g>
				<rect x="19.2" y="159.8" fill="#E3E4E4" width="22.7" height="17.3"/>
				<rect x="26.6" y="157.6" fill="#E3E4E4" width="19.1" height="18.1"/>
				<rect x="45.5" y="151.3" fill="#E3E4E4" width="37.4" height="18.5"/>
				<rect x="71.4" y="148.3" fill="#E3E4E4" width="13.1" height="22.7"/>
				<rect x="82.2" y="154.4" fill="#E3E4E4" width="5.6" height="12.3"/>
				<rect x="112.4" y="148.9" fill="#E3E4E4" width="12.3" height="17.5"/>
				<rect x="117.8" y="147.1" fill="#E3E4E4" width="5.4" height="20.3"/>
				<rect x="123.2" y="150.6" fill="#E3E4E4" width="6.2" height="11"/>
				<rect x="123.6" y="153.2" fill="#E3E4E4" width="12.7" height="24.1"/>
			</g>
			<rect x="20.2" y="162.5" fill="#E3E4E4" width="116.3" height="14.7"/>
		</g>
	</g>
	<g>
		
			<rect x="554.8" y="158.4" transform="matrix(1 -2.896347e-03 2.896347e-03 1 -0.4811 1.626)" fill="#E3E4E4" width="12.6" height="17.1"/>
		
			<rect x="565" y="162.5" transform="matrix(1 -2.896347e-03 2.896347e-03 1 -0.4876 1.658)" fill="#E3E4E4" width="14.4" height="13.3"/>
		
			<rect x="570.7" y="159.1" transform="matrix(1 -2.896347e-03 2.896347e-03 1 -0.4752 1.6695)" fill="#E3E4E4" width="11" height="11.6"/>
		
			<rect x="575.5" y="157.9" transform="matrix(1 -2.896347e-03 2.896347e-03 1 -0.4744 1.6744)" fill="#E3E4E4" width="4.8" height="13.4"/>
		
			<rect x="580.3" y="160.3" transform="matrix(1 -2.896347e-03 2.896347e-03 1 -0.4723 1.6894)" fill="#E3E4E4" width="5.5" height="7.2"/>
		
			<rect x="580.7" y="162" transform="matrix(1 -2.896347e-03 2.896347e-03 1 -0.4898 1.6994)" fill="#E3E4E4" width="11.7" height="15.9"/>
		
			<rect x="498.8" y="171.6" transform="matrix(1 -2.899439e-03 2.899439e-03 1 -0.5034 1.5824)" fill="#E3E4E4" width="93.5" height="5.6"/>
	</g>
	<g>
		
			<rect x="461.9" y="158.4" transform="matrix(1 -2.896347e-03 2.896347e-03 1 -0.4815 1.3568)" fill="#E3E4E4" width="12.6" height="17.1"/>
		
			<rect x="472" y="162.5" transform="matrix(1 -2.896347e-03 2.896347e-03 1 -0.488 1.3888)" fill="#E3E4E4" width="14.4" height="13.3"/>
		
			<rect x="477.7" y="159.1" transform="matrix(1 -2.896347e-03 2.896347e-03 1 -0.4756 1.4003)" fill="#E3E4E4" width="11" height="11.6"/>
		
			<rect x="482.5" y="157.9" transform="matrix(1 -2.896347e-03 2.896347e-03 1 -0.4748 1.4052)" fill="#E3E4E4" width="4.8" height="13.4"/>
		
			<rect x="487.3" y="160.3" transform="matrix(1 -2.896347e-03 2.896347e-03 1 -0.4726 1.4202)" fill="#E3E4E4" width="5.5" height="7.2"/>
		
			<rect x="487.7" y="162" transform="matrix(1 -2.896347e-03 2.896347e-03 1 -0.4901 1.4302)" fill="#E3E4E4" width="11.7" height="15.9"/>
		
			<rect x="405.8" y="171.6" transform="matrix(1 -2.899439e-03 2.899439e-03 1 -0.5038 1.3129)" fill="#E3E4E4" width="93.5" height="5.6"/>
	</g>
	<g>
		<g>
			
				<rect x="396" y="166.3" transform="matrix(1 -1.943679e-03 1.943679e-03 1 -0.3351 0.7957)" fill="#E3E4E4" width="26.4" height="13.1"/>
			
				<rect x="397.8" y="165" transform="matrix(1 -1.943679e-03 1.943679e-03 1 -0.3241 0.7791)" fill="#E3E4E4" width="5.8" height="4.2"/>
			
				<rect x="402.3" y="163.7" transform="matrix(1 -1.943679e-03 1.943679e-03 1 -0.3216 0.7857)" fill="#E3E4E4" width="3.5" height="4.2"/>
			
				<rect x="404.5" y="162.5" transform="matrix(1 -1.943679e-03 1.943679e-03 1 -0.3217 0.7919)" fill="#E3E4E4" width="5.5" height="6.9"/>
			
				<rect x="431.5" y="158.8" transform="matrix(1 -1.943679e-03 1.943679e-03 1 -0.3255 0.8487)" fill="#E3E4E4" width="10" height="18.3"/>
			
				<rect x="439.5" y="163.2" transform="matrix(1 -1.943679e-03 1.943679e-03 1 -0.3302 0.8656)" fill="#E3E4E4" width="11.4" height="14.2"/>
			
				<rect x="444" y="159.6" transform="matrix(1 -1.943679e-03 1.943679e-03 1 -0.3213 0.8718)" fill="#E3E4E4" width="8.7" height="12.4"/>
			
				<rect x="447.8" y="158.3" transform="matrix(1 -1.943679e-03 1.943679e-03 1 -0.3208 0.8743)" fill="#E3E4E4" width="3.8" height="14.3"/>
			
				<rect x="451.6" y="160.8" transform="matrix(1 -1.943679e-03 1.943679e-03 1 -0.3193 0.8823)" fill="#E3E4E4" width="4.4" height="7.7"/>
			
				<rect x="451.9" y="162.7" transform="matrix(1 -1.943679e-03 1.943679e-03 1 -0.3318 0.8876)" fill="#E3E4E4" width="9.2" height="17"/>
			
				<rect x="379" y="167.4" transform="matrix(1 -1.943679e-03 1.943679e-03 1 -0.3347 0.8167)" fill="#E3E4E4" width="82" height="10.4"/>
		</g>
		<g>
			<g>
				
					<rect x="271.1" y="162.5" transform="matrix(1 -1.945185e-03 1.945185e-03 1 -0.3307 0.5583)" fill="#E3E4E4" width="31.4" height="15.6"/>
				
					<rect x="297.5" y="154.8" transform="matrix(1 -1.943679e-03 1.943679e-03 1 -0.3165 0.6112)" fill="#E3E4E4" width="33.7" height="16.6"/>
				
					<rect x="321.7" y="152" transform="matrix(1 -1.943679e-03 1.943679e-03 1 -0.3147 0.637)" fill="#E3E4E4" width="11.8" height="20.4"/>
				
					<rect x="330.4" y="157.6" transform="matrix(1 -1.943679e-03 1.943679e-03 1 -0.3164 0.6474)" fill="#E3E4E4" width="5" height="11.1"/>
				
					<rect x="357.6" y="152.5" transform="matrix(1 -1.943679e-03 1.943679e-03 1 -0.311 0.7062)" fill="#E3E4E4" width="11.1" height="15.8"/>
				
					<rect x="362.5" y="150.9" transform="matrix(1 -1.943679e-03 1.943679e-03 1 -0.3103 0.7095)" fill="#E3E4E4" width="4.8" height="18.3"/>
				
					<rect x="367.3" y="154.1" transform="matrix(1 -1.943679e-03 1.943679e-03 1 -0.3084 0.7196)" fill="#E3E4E4" width="5.5" height="9.8"/>
				
					<rect x="367.7" y="156.4" transform="matrix(1 -1.943679e-03 1.943679e-03 1 -0.3244 0.7261)" fill="#E3E4E4" width="11.5" height="21.7"/>
			</g>
		</g>
	</g>
	<g>
		<path fill="#E3E4E4" d="M362,153.7c0,0,0.3-1.4,1.6-2.3c1.1-0.7,2.4-0.8,2.4-0.8l0,0v-6.3h0v-3.3h-1v-1h1v-4c0,0-0.4-1.9,1.6-3.7
			c2-1.8,4.6-3.2,6-5.3c1.3-2.1,1.8-3.4,1.8-3.4h0.5v30.1L362,153.7z"/>
		<path fill="#E3E4E4" d="M388.9,153.7c0,0-0.3-1.4-1.6-2.3c-1.1-0.7-2.4-0.8-2.4-0.8l0,0v-6.3h0v-3.3h1v-1h-1v-4
			c0,0,0.4-1.9-1.6-3.7c-2-1.8-4.6-3.2-6-5.3c-1.3-2.1-1.8-3.4-1.8-3.4h-0.5v30.1L388.9,153.7z"/>
		<line fill="#E3E4E4" x1="375.4" y1="124.5" x2="375.4" y2="117.4"/>
		<rect x="375.1" y="117.4" fill="#E3E4E4" width="0.7" height="7.1"/>
		<line fill="#E3E4E4" x1="377.1" y1="119.6" x2="373.7" y2="119.6"/>
		<rect x="373.7" y="119.3" fill="#E3E4E4" width="3.3" height="0.7"/>
		<path fill="#E3E4E4" d="M390.3,153.8c0,0,0.1-0.4,0.5-0.7c0.3-0.2,0.7-0.2,0.7-0.2l0,0v-5.2h0v-0.9h-0.3v-0.3h0.3v-1.2
			c0,0-0.1-0.6,0.5-1.1c0.6-0.5,1.3-0.9,1.7-1.5c0.4-0.6,0.5-1,0.5-1h0.1v12.1L390.3,153.8z"/>
		<path fill="#E3E4E4" d="M398.1,153.8c0,0-0.1-0.4-0.5-0.7c-0.3-0.2-0.7-0.2-0.7-0.2l0,0v-5.2h0v-0.9h0.3v-0.3H397v-1.2
			c0,0,0.1-0.6-0.5-1.1c-0.6-0.5-1.3-0.9-1.7-1.5c-0.4-0.6-0.5-1-0.5-1h-0.1v12.1L398.1,153.8z"/>
		<path fill="#E3E4E4" d="M353,153.8c0,0,0.1-0.4,0.5-0.7c0.3-0.2,0.7-0.2,0.7-0.2l0,0v-5.2h0v-0.9h-0.3v-0.3h0.3v-1.2
			c0,0-0.1-0.6,0.5-1.1c0.6-0.5,1.3-0.9,1.7-1.5c0.4-0.6,0.5-1,0.5-1h0.1v12.1L353,153.8z"/>
		<path fill="#E3E4E4" d="M360.8,153.8c0,0-0.1-0.4-0.5-0.7c-0.3-0.2-0.7-0.2-0.7-0.2l0,0v-5.2h0v-0.9h0.3v-0.3h-0.3v-1.2
			c0,0,0.1-0.6-0.5-1.1c-0.6-0.5-1.3-0.9-1.7-1.5c-0.4-0.6-0.5-1-0.5-1h-0.1v12.1L360.8,153.8z"/>
		<line fill="#E3E4E4" x1="356.9" y1="141.9" x2="356.9" y2="139.9"/>
		<line fill="#E3E4E4" x1="357.4" y1="140.5" x2="356.4" y2="140.5"/>
		<rect x="353.1" y="153.4" fill="#E3E4E4" width="45.1" height="24.3"/>
	</g>
	<g>
		<rect x="435" y="166.3" fill="#E3E4E4" width="8.7" height="12"/>
		<rect x="409.3" y="166.6" fill="#E3E4E4" width="7.6" height="11.7"/>
		<rect x="407.3" y="176.2" fill="#E3E4E4" width="37.4" height="1.1"/>
		<rect x="415.5" y="152.3" fill="#E3E4E4" width="21.2" height="1.1"/>
		<polygon fill="#E3E4E4" points="444.9,166.7 409,166.7 408.4,165.7 444.4,165.7 		"/>
		<rect x="418.8" y="144.3" fill="#E3E4E4" width="14.8" height="0.6"/>
		<rect x="416.6" y="152.9" fill="#E3E4E4" width="19.1" height="23.4"/>
		<rect x="419.8" y="144.5" fill="#E3E4E4" width="12.9" height="8.9"/>
		<rect x="421.2" y="135.5" fill="#E3E4E4" width="10" height="8.9"/>
		<rect x="417.9" y="153.5" fill="#FFFFFF" width="1.9" height="1.9"/>
		<rect x="420.3" y="153.5" fill="#FFFFFF" width="1.9" height="1.9"/>
		<rect x="417.9" y="155.9" fill="#FFFFFF" width="1.9" height="1.9"/>
		<rect x="420.3" y="155.9" fill="#FFFFFF" width="1.9" height="1.9"/>
		<rect x="417.9" y="158.4" fill="#FFFFFF" width="1.9" height="1.9"/>
		<rect x="420.3" y="158.4" fill="#FFFFFF" width="1.9" height="1.9"/>
		<rect x="420.5" y="145.1" fill="#FFFFFF" width="1.9" height="1.9"/>
		<rect x="422.9" y="145.1" fill="#FFFFFF" width="1.9" height="1.9"/>
		<rect x="420.5" y="147.5" fill="#FFFFFF" width="1.9" height="1.9"/>
		<rect x="422.9" y="147.5" fill="#FFFFFF" width="1.9" height="1.9"/>
		<rect x="420.5" y="149.9" fill="#FFFFFF" width="1.9" height="1.9"/>
		<rect x="422.5" y="136.4" fill="#FFFFFF" width="1.9" height="1.9"/>
		<rect x="425.7" y="136.4" fill="#FFFFFF" width="1.1" height="6.7"/>
		<rect x="425.7" y="145.1" fill="#FFFFFF" width="1.1" height="6.8"/>
		<rect x="425.7" y="153.5" fill="#FFFFFF" width="1.1" height="21.1"/>
		<rect x="422.5" y="138.8" fill="#FFFFFF" width="1.9" height="1.9"/>
		<rect x="422.5" y="141.3" fill="#FFFFFF" width="1.9" height="1.9"/>
		<rect x="428.2" y="136.4" fill="#FFFFFF" width="1.9" height="1.9"/>
		<rect x="428.2" y="138.8" fill="#FFFFFF" width="1.9" height="1.9"/>
		<rect x="428.2" y="141.3" fill="#FFFFFF" width="1.9" height="1.9"/>
		<rect x="422.9" y="149.9" fill="#FFFFFF" width="1.9" height="1.9"/>
		<rect x="427.8" y="145.1" fill="#FFFFFF" width="1.9" height="1.9"/>
		<rect x="430.2" y="145.1" fill="#FFFFFF" width="1.9" height="1.9"/>
		<rect x="427.8" y="147.5" fill="#FFFFFF" width="1.9" height="1.9"/>
		<rect x="430.2" y="147.5" fill="#FFFFFF" width="1.9" height="1.9"/>
		<rect x="427.8" y="149.9" fill="#FFFFFF" width="1.9" height="1.9"/>
		<rect x="430.2" y="149.9" fill="#FFFFFF" width="1.9" height="1.9"/>
		<rect x="417.9" y="160.8" fill="#FFFFFF" width="1.9" height="1.9"/>
		<rect x="420.3" y="160.8" fill="#FFFFFF" width="1.9" height="1.9"/>
		<rect x="417.9" y="163.2" fill="#FFFFFF" width="1.9" height="1.9"/>
		<rect x="420.3" y="163.2" fill="#FFFFFF" width="1.9" height="1.9"/>
		<rect x="417.9" y="165.7" fill="#FFFFFF" width="1.9" height="1.9"/>
		<rect x="420.3" y="165.7" fill="#FFFFFF" width="1.9" height="1.9"/>
		<rect x="417.9" y="168.1" fill="#FFFFFF" width="1.9" height="1.9"/>
		<rect x="420.3" y="168.1" fill="#FFFFFF" width="1.9" height="1.9"/>
		<rect x="410.9" y="168.2" fill="#FFFFFF" width="1.9" height="1.9"/>
		<rect x="413.3" y="168.2" fill="#FFFFFF" width="1.9" height="1.9"/>
		<rect x="410.9" y="170.6" fill="#FFFFFF" width="1.9" height="1.9"/>
		<rect x="413.3" y="170.6" fill="#FFFFFF" width="1.9" height="1.9"/>
		<rect x="410.9" y="173.1" fill="#FFFFFF" width="1.9" height="1.9"/>
		<rect x="413.3" y="173.1" fill="#FFFFFF" width="1.9" height="1.9"/>
		<rect x="437.3" y="168.2" fill="#FFFFFF" width="1.9" height="1.9"/>
		<rect x="439.8" y="168.2" fill="#FFFFFF" width="1.9" height="1.9"/>
		<rect x="437.3" y="170.6" fill="#FFFFFF" width="1.9" height="1.9"/>
		<rect x="439.8" y="170.6" fill="#FFFFFF" width="1.9" height="1.9"/>
		<rect x="437.3" y="173.1" fill="#FFFFFF" width="1.9" height="1.9"/>
		<rect x="439.8" y="173.1" fill="#FFFFFF" width="1.9" height="1.9"/>
		<rect x="417.9" y="170.5" fill="#FFFFFF" width="1.9" height="1.9"/>
		<rect x="420.3" y="170.5" fill="#FFFFFF" width="1.9" height="1.9"/>
		<rect x="417.9" y="173" fill="#FFFFFF" width="1.9" height="1.9"/>
		<rect x="420.3" y="173" fill="#FFFFFF" width="1.9" height="1.9"/>
		<rect x="430.1" y="153.5" fill="#FFFFFF" width="1.9" height="1.9"/>
		<rect x="432.5" y="153.5" fill="#FFFFFF" width="1.9" height="1.9"/>
		<rect x="430.1" y="155.9" fill="#FFFFFF" width="1.9" height="1.9"/>
		<rect x="432.5" y="155.9" fill="#FFFFFF" width="1.9" height="1.9"/>
		<rect x="430.1" y="158.4" fill="#FFFFFF" width="1.9" height="1.9"/>
		<rect x="432.5" y="158.4" fill="#FFFFFF" width="1.9" height="1.9"/>
		<rect x="430.1" y="160.8" fill="#FFFFFF" width="1.9" height="1.9"/>
		<rect x="432.5" y="160.8" fill="#FFFFFF" width="1.9" height="1.9"/>
		<rect x="430.1" y="163.2" fill="#FFFFFF" width="1.9" height="1.9"/>
		<rect x="432.5" y="163.2" fill="#FFFFFF" width="1.9" height="1.9"/>
		<rect x="430.1" y="165.7" fill="#FFFFFF" width="1.9" height="1.9"/>
		<rect x="432.5" y="165.7" fill="#FFFFFF" width="1.9" height="1.9"/>
		<rect x="430.1" y="168.1" fill="#FFFFFF" width="1.9" height="1.9"/>
		<rect x="432.5" y="168.1" fill="#FFFFFF" width="1.9" height="1.9"/>
		<rect x="430.1" y="170.5" fill="#FFFFFF" width="1.9" height="1.9"/>
		<rect x="432.5" y="170.5" fill="#FFFFFF" width="1.9" height="1.9"/>
		<rect x="430.1" y="173" fill="#FFFFFF" width="1.9" height="1.9"/>
		<rect x="432.5" y="173" fill="#FFFFFF" width="1.9" height="1.9"/>
		<rect x="420.6" y="135" fill="#E3E4E4" width="11.1" height="0.5"/>
		<rect x="423.6" y="134.1" fill="#E3E4E4" width="5.1" height="0.9"/>
		<rect x="424.2" y="133" fill="#E3E4E4" width="3.8" height="1.2"/>
		<rect x="424.8" y="131.9" fill="#E3E4E4" width="2.8" height="1.1"/>
		<rect x="425.9" y="125.9" fill="#E3E4E4" width="0.4" height="6.6"/>
		<polygon fill="#E3E4E4" points="426.3,126.3 428.6,126.3 427.9,127.1 428.5,127.9 426.3,127.9 		"/>
	</g>
	<g>
		<polygon fill="#B0B2B6" points="55.4,177.8 65.5,177.8 60,162.7 60.9,162.7 60.9,161.5 59.9,161.5 59.9,151.3 60.9,151.3 
			60.9,150.1 59.9,150.1 59.9,148.6 60.6,148.6 60.6,147.4 59.2,147.4 59.2,134.9 59.8,134.9 59.8,133.7 59.2,133.7 59.2,132.4 
			59.8,132.4 59.8,131.3 58.7,131.3 58.7,121 59,121 59,119.9 57.2,119.9 57.2,96.2 57.9,96.2 57.9,94.8 58.6,94.8 58.6,93.4 
			59.8,93.4 59.8,78.6 58.6,78.6 58.6,77.2 57.9,77.2 57.9,73.2 56.6,73.2 56.6,61.5 55.8,61.5 55.5,50.5 55.3,50.5 55.4,50.5 
			55.2,50.5 54.9,61.5 54.1,61.5 54.1,73.2 52.8,73.2 52.8,77.2 52.1,77.2 52.1,78.6 50.9,78.6 50.9,93.4 52.1,93.4 52.1,94.8 
			52.8,94.8 52.8,96.2 53.5,96.2 53.5,119.9 51.8,119.9 51.8,121 52,121 52,131.3 50.9,131.3 50.9,132.4 51.5,132.4 51.5,133.7 
			50.9,133.7 50.9,134.9 51.5,134.9 51.5,147.4 50.2,147.4 50.2,148.6 50.8,148.6 50.8,150.1 49.8,150.1 49.8,151.3 50.8,151.3 
			50.8,161.5 49.8,161.5 49.8,162.7 50.7,162.7 45.2,177.8 55.4,177.8 		"/>
		<polygon fill="#FFFFFF" points="54.1,176.7 52.7,166.2 52.2,166.2 50.8,176.7 		"/>
		<polygon fill="#FFFFFF" points="59.7,176.7 58.3,166.2 57.7,166.2 56.3,176.7 		"/>
		<g>
			<image width="39" height="64" xlink:href="D62090815E60FEC1.png"  transform="matrix(0.24 0 0 0.24 50.6857 78.414)">
			</image>
		</g>
		<g>
			<image width="29" height="75" xlink:href="D62090815E60FEC6.png"  transform="matrix(0.24 0 0 0.24 51.9321 77.1677)">
			</image>
		</g>
		<g>
			<image width="24" height="98" xlink:href="D62090815E60FEC0.png"  transform="matrix(0.24 0 0 0.24 52.5552 73.1171)">
			</image>
		</g>
		<g>
			<image width="29" height="45" xlink:href="D62090815E60FEC3.png"  transform="matrix(0.24 0 0 0.24 51.9321 120.7892)">
			</image>
		</g>
		<g>
			<image width="39" height="7" xlink:href="D62090815E60FECF.png"  transform="matrix(0.24 0 0 0.24 50.6857 131.0714)">
			</image>
		</g>
		<g>
			<image width="39" height="7" xlink:href="D62090815E60FECE.png"  transform="matrix(0.24 0 0 0.24 50.6857 133.564)">
			</image>
		</g>
		<g>
			<image width="45" height="7" xlink:href="D62090815E60FEC5.png"  transform="matrix(0.24 0 0 0.24 50.0626 147.2736)">
			</image>
		</g>
		<g>
			<image width="49" height="6" xlink:href="D62090815E60FEC7.png"  transform="matrix(0.24 0 0 0.24 49.4394 150.0779)">
			</image>
		</g>
		<g>
			<image width="49" height="7" xlink:href="D62090815E60FEC4.png"  transform="matrix(0.24 0 0 0.24 49.4394 161.2948)">
			</image>
		</g>
	</g>
	<rect x="491.6" y="177.7" fill="#FFFFFF" width="4.9" height="2"/>
	<rect x="469.7" y="177.7" fill="#FFFFFF" width="4.9" height="2"/>
	<polyline fill="#B0B2B6" points="592.4,177.1 592.4,179.9 19.2,179.9 19.2,177.1 	"/>
	<g>
		<rect x="459.9" y="137.9" fill="#E3E4E4" width="16.1" height="36.6"/>
		<image width="39" height="6" xlink:href="F2B4E2B2A404D255.png"  transform="matrix(0.24 0 0 0.24 462.5433 140.912)">
		</image>
		<g>
			<image width="39" height="6" xlink:href="F2B4E2B2A404D26B.png"  transform="matrix(0.24 0 0 0.24 462.5433 144.216)">
			</image>
		</g>
		<g>
			<image width="39" height="9" xlink:href="F2B4E2B2A404D26D.png"  transform="matrix(0.24 0 0 0.24 462.5433 147.52)">
			</image>
		</g>
		<g>
			<image width="39" height="9" xlink:href="F2B4E2B2A404D26F.png"  transform="matrix(0.24 0 0 0.24 462.5433 150.824)">
			</image>
		</g>
		<g>
			<image width="39" height="9" xlink:href="F2B4E2B2A404D26C.png"  transform="matrix(0.24 0 0 0.24 462.5433 154.128)">
			</image>
		</g>
		<g>
			<image width="39" height="9" xlink:href="F2B4E2B2A404D274.png"  transform="matrix(0.24 0 0 0.24 462.5433 157.432)">
			</image>
		</g>
		<image width="39" height="9" xlink:href="F2B4E2B2A404D275.png"  transform="matrix(0.24 0 0 0.24 462.5433 160.736)">
		</image>
		<g>
			<image width="39" height="6" xlink:href="F2B4E2B2A404D277.png"  transform="matrix(0.24 0 0 0.24 462.5433 164.7007)">
			</image>
		</g>
		<g>
			<image width="39" height="6" xlink:href="F2B4E2B2A404D273.png"  transform="matrix(0.24 0 0 0.24 462.5433 168.0047)">
			</image>
		</g>
	</g>
	<g>
		<g>
			<rect x="110.7" y="160.8" fill="#B0B2B6" width="8.2" height="6"/>
			<rect x="117.1" y="159" fill="#CFCECF" width="5" height="6"/>
			<rect x="120.3" y="157.2" fill="#CFCECF" width="7.8" height="9.8"/>
			<rect x="94.2" y="41.6" fill="#3787C8" width="38.8" height="0.8"/>
			<rect x="102.4" y="40.2" fill="#3787C8" width="22.3" height="1.9"/>
			<polygon fill="#3787C8" points="131.4,177.9 131.4,42.4 119.8,42.4 111,42.4 98,42.4 95.5,42.4 95.5,177.6 			"/>
			<rect x="91.4" y="177.2" fill="#3787C8" width="44.8" height="2.6"/>
			<rect x="116" y="148.4" fill="#FFFFFF" width="3.5" height="3.5"/>
			<rect x="116" y="152.7" fill="#FFFFFF" width="3.5" height="3.5"/>
			<rect x="116" y="157" fill="#FFFFFF" width="3.5" height="3.5"/>
			<rect x="116" y="161.3" fill="#FFFFFF" width="3.5" height="3.5"/>
			<rect x="116" y="165.6" fill="#FFFFFF" width="3.5" height="3.5"/>
			<rect x="116" y="169.9" fill="#FFFFFF" width="3.5" height="3.5"/>
			<rect x="97.8" y="148.4" fill="#FFFFFF" width="3.5" height="3.5"/>
			<rect x="97.8" y="152.7" fill="#FFFFFF" width="3.5" height="3.5"/>
			<rect x="97.8" y="157" fill="#FFFFFF" width="3.5" height="3.5"/>
			<rect x="97.8" y="161.3" fill="#FFFFFF" width="3.5" height="3.5"/>
			<rect x="97.8" y="165.6" fill="#FFFFFF" width="3.5" height="3.5"/>
			<rect x="97.8" y="169.9" fill="#FFFFFF" width="3.5" height="3.5"/>
			<rect x="102.6" y="148.4" fill="#FFFFFF" width="3.5" height="3.5"/>
			<rect x="102.6" y="152.7" fill="#FFFFFF" width="3.5" height="3.5"/>
			<rect x="102.6" y="157" fill="#FFFFFF" width="3.5" height="3.5"/>
			<rect x="102.6" y="161.3" fill="#FFFFFF" width="3.5" height="3.5"/>
			<rect x="102.6" y="165.6" fill="#FFFFFF" width="3.5" height="3.5"/>
			<rect x="102.6" y="169.9" fill="#FFFFFF" width="3.5" height="3.5"/>
			<rect x="107.4" y="148.4" fill="#FFFFFF" width="3.5" height="3.5"/>
			<rect x="107.4" y="152.7" fill="#FFFFFF" width="3.5" height="3.5"/>
			<rect x="107.4" y="157" fill="#FFFFFF" width="3.5" height="3.5"/>
			<rect x="107.4" y="161.3" fill="#FFFFFF" width="3.5" height="3.5"/>
			<rect x="107.4" y="165.6" fill="#FFFFFF" width="3.5" height="3.5"/>
			<rect x="107.4" y="169.9" fill="#FFFFFF" width="3.5" height="3.5"/>
			<rect x="120.9" y="148.4" fill="#FFFFFF" width="3.5" height="3.5"/>
			<rect x="120.9" y="152.7" fill="#FFFFFF" width="3.5" height="3.5"/>
			<rect x="120.9" y="157" fill="#FFFFFF" width="3.5" height="3.5"/>
			<rect x="120.9" y="161.3" fill="#FFFFFF" width="3.5" height="3.5"/>
			<rect x="120.9" y="165.6" fill="#FFFFFF" width="3.5" height="3.5"/>
			<rect x="120.9" y="169.9" fill="#FFFFFF" width="3.5" height="3.5"/>
			<rect x="125.9" y="148.4" fill="#FFFFFF" width="3.5" height="3.5"/>
			<rect x="125.9" y="152.7" fill="#FFFFFF" width="3.5" height="3.5"/>
			<rect x="125.9" y="157" fill="#FFFFFF" width="3.5" height="3.5"/>
			<rect x="116" y="139.6" fill="#FFFFFF" width="3.5" height="3.5"/>
			<rect x="116" y="143.9" fill="#FFFFFF" width="3.5" height="3.5"/>
			<rect x="97.8" y="139.6" fill="#FFFFFF" width="3.5" height="3.5"/>
			<rect x="97.8" y="143.9" fill="#FFFFFF" width="3.5" height="3.5"/>
			<rect x="102.6" y="139.6" fill="#FFFFFF" width="3.5" height="3.5"/>
			<rect x="102.6" y="143.9" fill="#FFFFFF" width="3.5" height="3.5"/>
			<rect x="107.4" y="139.6" fill="#FFFFFF" width="3.5" height="3.5"/>
			<rect x="107.4" y="143.9" fill="#FFFFFF" width="3.5" height="3.5"/>
			<rect x="120.9" y="139.6" fill="#FFFFFF" width="3.5" height="3.5"/>
			<rect x="120.9" y="143.9" fill="#FFFFFF" width="3.5" height="3.5"/>
			<rect x="125.9" y="139.6" fill="#FFFFFF" width="3.5" height="3.5"/>
			<rect x="125.9" y="143.9" fill="#FFFFFF" width="3.5" height="3.5"/>
			<rect x="125.9" y="161.3" fill="#FFFFFF" width="3.5" height="3.5"/>
			<rect x="125.9" y="165.6" fill="#FFFFFF" width="3.5" height="3.5"/>
			<rect x="125.9" y="169.9" fill="#FFFFFF" width="3.5" height="3.5"/>
			<rect x="116" y="113.9" fill="#FFFFFF" width="3.5" height="3.5"/>
			<rect x="116" y="118.1" fill="#FFFFFF" width="3.5" height="3.5"/>
			<rect x="116" y="122.4" fill="#FFFFFF" width="3.5" height="3.5"/>
			<rect x="116" y="126.7" fill="#FFFFFF" width="3.5" height="3.5"/>
			<rect x="116" y="131" fill="#FFFFFF" width="3.5" height="3.5"/>
			<rect x="116" y="135.3" fill="#FFFFFF" width="3.5" height="3.5"/>
			<rect x="97.8" y="113.9" fill="#FFFFFF" width="3.5" height="3.5"/>
			<rect x="97.8" y="118.1" fill="#FFFFFF" width="3.5" height="3.5"/>
			<rect x="97.8" y="122.4" fill="#FFFFFF" width="3.5" height="3.5"/>
			<rect x="97.8" y="126.7" fill="#FFFFFF" width="3.5" height="3.5"/>
			<rect x="97.8" y="131" fill="#FFFFFF" width="3.5" height="3.5"/>
			<rect x="97.8" y="135.3" fill="#FFFFFF" width="3.5" height="3.5"/>
			<rect x="102.6" y="113.9" fill="#FFFFFF" width="3.5" height="3.5"/>
			<rect x="102.6" y="118.1" fill="#FFFFFF" width="3.5" height="3.5"/>
			<rect x="102.6" y="122.4" fill="#FFFFFF" width="3.5" height="3.5"/>
			<rect x="102.6" y="126.7" fill="#FFFFFF" width="3.5" height="3.5"/>
			<rect x="102.6" y="131" fill="#FFFFFF" width="3.5" height="3.5"/>
			<rect x="102.6" y="135.3" fill="#FFFFFF" width="3.5" height="3.5"/>
			<rect x="107.4" y="113.9" fill="#FFFFFF" width="3.5" height="3.5"/>
			<rect x="107.4" y="118.1" fill="#FFFFFF" width="3.5" height="3.5"/>
			<rect x="107.4" y="122.4" fill="#FFFFFF" width="3.5" height="3.5"/>
			<rect x="107.4" y="126.7" fill="#FFFFFF" width="3.5" height="3.5"/>
			<rect x="107.4" y="131" fill="#FFFFFF" width="3.5" height="3.5"/>
			<rect x="107.4" y="135.3" fill="#FFFFFF" width="3.5" height="3.5"/>
			<rect x="120.9" y="113.9" fill="#FFFFFF" width="3.5" height="3.5"/>
			<rect x="120.9" y="118.1" fill="#FFFFFF" width="3.5" height="3.5"/>
			<rect x="120.9" y="122.4" fill="#FFFFFF" width="3.5" height="3.5"/>
			<rect x="120.9" y="126.7" fill="#FFFFFF" width="3.5" height="3.5"/>
			<rect x="120.9" y="131" fill="#FFFFFF" width="3.5" height="3.5"/>
			<rect x="120.9" y="135.3" fill="#FFFFFF" width="3.5" height="3.5"/>
			<rect x="125.9" y="113.9" fill="#FFFFFF" width="3.5" height="3.5"/>
			<rect x="125.9" y="118.1" fill="#FFFFFF" width="3.5" height="3.5"/>
			<rect x="125.9" y="122.4" fill="#FFFFFF" width="3.5" height="3.5"/>
			<rect x="116" y="105.1" fill="#FFFFFF" width="3.5" height="3.5"/>
			<rect x="116" y="109.4" fill="#FFFFFF" width="3.5" height="3.5"/>
			<rect x="97.8" y="105.1" fill="#FFFFFF" width="3.5" height="3.5"/>
			<rect x="97.8" y="109.4" fill="#FFFFFF" width="3.5" height="3.5"/>
			<rect x="102.6" y="105.1" fill="#FFFFFF" width="3.5" height="3.5"/>
			<rect x="102.6" y="109.4" fill="#FFFFFF" width="3.5" height="3.5"/>
			<rect x="107.4" y="105.1" fill="#FFFFFF" width="3.5" height="3.5"/>
			<rect x="107.4" y="109.4" fill="#FFFFFF" width="3.5" height="3.5"/>
			<rect x="120.9" y="105.1" fill="#FFFFFF" width="3.5" height="3.5"/>
			<rect x="120.9" y="109.4" fill="#FFFFFF" width="3.5" height="3.5"/>
			<rect x="125.9" y="105.1" fill="#FFFFFF" width="3.5" height="3.5"/>
			<rect x="116" y="100.6" fill="#FFFFFF" width="3.5" height="3.5"/>
			<rect x="97.8" y="100.6" fill="#FFFFFF" width="3.5" height="3.5"/>
			<rect x="102.6" y="100.6" fill="#FFFFFF" width="3.5" height="3.5"/>
			<rect x="107.4" y="100.6" fill="#FFFFFF" width="3.5" height="3.5"/>
			<rect x="120.9" y="100.6" fill="#FFFFFF" width="3.5" height="3.5"/>
			<rect x="125.9" y="100.6" fill="#FFFFFF" width="3.5" height="3.5"/>
			<rect x="125.9" y="109.4" fill="#FFFFFF" width="3.5" height="3.5"/>
			<rect x="125.9" y="126.7" fill="#FFFFFF" width="3.5" height="3.5"/>
			<rect x="125.9" y="131" fill="#FFFFFF" width="3.5" height="3.5"/>
			<rect x="125.9" y="135.3" fill="#FFFFFF" width="3.5" height="3.5"/>
			<rect x="116" y="91.9" fill="#FFFFFF" width="3.5" height="3.5"/>
			<rect x="116" y="96.2" fill="#FFFFFF" width="3.5" height="3.5"/>
			<rect x="97.8" y="91.9" fill="#FFFFFF" width="3.5" height="3.5"/>
			<rect x="97.8" y="96.2" fill="#FFFFFF" width="3.5" height="3.5"/>
			<rect x="102.6" y="91.9" fill="#FFFFFF" width="3.5" height="3.5"/>
			<rect x="102.6" y="96.2" fill="#FFFFFF" width="3.5" height="3.5"/>
			<rect x="107.4" y="91.9" fill="#FFFFFF" width="3.5" height="3.5"/>
			<rect x="107.4" y="96.2" fill="#FFFFFF" width="3.5" height="3.5"/>
			<rect x="120.9" y="91.9" fill="#FFFFFF" width="3.5" height="3.5"/>
			<rect x="120.9" y="96.2" fill="#FFFFFF" width="3.5" height="3.5"/>
			<rect x="125.9" y="91.9" fill="#FFFFFF" width="3.5" height="3.5"/>
			<rect x="125.9" y="96.2" fill="#FFFFFF" width="3.5" height="3.5"/>
			<rect x="116" y="83.1" fill="#FFFFFF" width="3.5" height="3.5"/>
			<rect x="116" y="87.4" fill="#FFFFFF" width="3.5" height="3.5"/>
			<rect x="97.8" y="83.1" fill="#FFFFFF" width="3.5" height="3.5"/>
			<rect x="97.8" y="87.4" fill="#FFFFFF" width="3.5" height="3.5"/>
			<rect x="102.6" y="83.1" fill="#FFFFFF" width="3.5" height="3.5"/>
			<rect x="102.6" y="87.4" fill="#FFFFFF" width="3.5" height="3.5"/>
			<rect x="107.4" y="83.1" fill="#FFFFFF" width="3.5" height="3.5"/>
			<rect x="107.4" y="87.4" fill="#FFFFFF" width="3.5" height="3.5"/>
			<rect x="120.9" y="83.1" fill="#FFFFFF" width="3.5" height="3.5"/>
			<rect x="120.9" y="87.4" fill="#FFFFFF" width="3.5" height="3.5"/>
			<rect x="125.9" y="83.1" fill="#FFFFFF" width="3.5" height="3.5"/>
			<rect x="125.9" y="87.4" fill="#FFFFFF" width="3.5" height="3.5"/>
			<rect x="116" y="57.3" fill="#FFFFFF" width="3.5" height="3.5"/>
			<rect x="116" y="61.6" fill="#FFFFFF" width="3.5" height="3.5"/>
			<rect x="116" y="65.9" fill="#FFFFFF" width="3.5" height="3.5"/>
			<rect x="116" y="70.2" fill="#FFFFFF" width="3.5" height="3.5"/>
			<rect x="116" y="74.5" fill="#FFFFFF" width="3.5" height="3.5"/>
			<rect x="116" y="78.8" fill="#FFFFFF" width="3.5" height="3.5"/>
			<rect x="97.8" y="57.3" fill="#FFFFFF" width="3.5" height="3.5"/>
			<rect x="97.8" y="61.6" fill="#FFFFFF" width="3.5" height="3.5"/>
			<rect x="97.8" y="65.9" fill="#FFFFFF" width="3.5" height="3.5"/>
			<rect x="97.8" y="70.2" fill="#FFFFFF" width="3.5" height="3.5"/>
			<rect x="97.8" y="74.5" fill="#FFFFFF" width="3.5" height="3.5"/>
			<rect x="97.8" y="78.8" fill="#FFFFFF" width="3.5" height="3.5"/>
			<rect x="102.6" y="57.3" fill="#FFFFFF" width="3.5" height="3.5"/>
			<rect x="102.6" y="61.6" fill="#FFFFFF" width="3.5" height="3.5"/>
			<rect x="102.6" y="65.9" fill="#FFFFFF" width="3.5" height="3.5"/>
			<rect x="102.6" y="70.2" fill="#FFFFFF" width="3.5" height="3.5"/>
			<rect x="102.6" y="74.5" fill="#FFFFFF" width="3.5" height="3.5"/>
			<rect x="102.6" y="78.8" fill="#FFFFFF" width="3.5" height="3.5"/>
			<rect x="107.4" y="57.3" fill="#FFFFFF" width="3.5" height="3.5"/>
			<rect x="107.4" y="61.6" fill="#FFFFFF" width="3.5" height="3.5"/>
			<rect x="107.4" y="65.9" fill="#FFFFFF" width="3.5" height="3.5"/>
			<rect x="107.4" y="70.2" fill="#FFFFFF" width="3.5" height="3.5"/>
			<rect x="107.4" y="74.5" fill="#FFFFFF" width="3.5" height="3.5"/>
			<rect x="107.4" y="78.8" fill="#FFFFFF" width="3.5" height="3.5"/>
			<rect x="120.9" y="57.3" fill="#FFFFFF" width="3.5" height="3.5"/>
			<rect x="120.9" y="61.6" fill="#FFFFFF" width="3.5" height="3.5"/>
			<rect x="120.9" y="65.9" fill="#FFFFFF" width="3.5" height="3.5"/>
			<rect x="120.9" y="70.2" fill="#FFFFFF" width="3.5" height="3.5"/>
			<rect x="120.9" y="74.5" fill="#FFFFFF" width="3.5" height="3.5"/>
			<rect x="120.9" y="78.8" fill="#FFFFFF" width="3.5" height="3.5"/>
			<rect x="125.9" y="57.3" fill="#FFFFFF" width="3.5" height="3.5"/>
			<rect x="125.9" y="61.6" fill="#FFFFFF" width="3.5" height="3.5"/>
			<rect x="125.9" y="65.9" fill="#FFFFFF" width="3.5" height="3.5"/>
			<rect x="116" y="48.5" fill="#FFFFFF" width="3.5" height="3.5"/>
			<rect x="116" y="52.8" fill="#FFFFFF" width="3.5" height="3.5"/>
			<rect x="97.8" y="48.5" fill="#FFFFFF" width="3.5" height="3.5"/>
			<rect x="97.8" y="52.8" fill="#FFFFFF" width="3.5" height="3.5"/>
			<rect x="102.6" y="48.5" fill="#FFFFFF" width="3.5" height="3.5"/>
			<rect x="102.6" y="52.8" fill="#FFFFFF" width="3.5" height="3.5"/>
			<rect x="107.4" y="48.5" fill="#FFFFFF" width="3.5" height="3.5"/>
			<rect x="107.4" y="52.8" fill="#FFFFFF" width="3.5" height="3.5"/>
			<rect x="120.9" y="48.5" fill="#FFFFFF" width="3.5" height="3.5"/>
			<rect x="120.9" y="52.8" fill="#FFFFFF" width="3.5" height="3.5"/>
			<rect x="125.9" y="48.5" fill="#FFFFFF" width="3.5" height="3.5"/>
			<rect x="116" y="44.1" fill="#FFFFFF" width="3.5" height="3.5"/>
			<rect x="97.8" y="44.1" fill="#FFFFFF" width="3.5" height="3.5"/>
			<rect x="102.6" y="44.1" fill="#FFFFFF" width="3.5" height="3.5"/>
			<rect x="107.4" y="44.1" fill="#FFFFFF" width="3.5" height="3.5"/>
			<rect x="120.9" y="44.1" fill="#FFFFFF" width="3.5" height="3.5"/>
			<rect x="125.9" y="44.1" fill="#FFFFFF" width="3.5" height="3.5"/>
			<rect x="125.9" y="52.8" fill="#FFFFFF" width="3.5" height="3.5"/>
			<rect x="125.9" y="70.2" fill="#FFFFFF" width="3.5" height="3.5"/>
			<rect x="125.9" y="74.5" fill="#FFFFFF" width="3.5" height="3.5"/>
			<rect x="125.9" y="78.8" fill="#FFFFFF" width="3.5" height="3.5"/>
		</g>
		<g>
			<rect x="165.3" y="160.8" fill="#B0B2B6" width="8.2" height="6"/>
			<rect x="171.6" y="159" fill="#CFCECF" width="5" height="6"/>
			<rect x="174.8" y="157.2" fill="#CFCECF" width="7.8" height="9.8"/>
			<rect x="148.8" y="41.6" fill="#3787C8" width="38.8" height="0.8"/>
			<rect x="157" y="40.2" fill="#3787C8" width="22.3" height="1.9"/>
			<polygon fill="#3787C8" points="185.9,177.9 185.9,42.4 174.4,42.4 165.6,42.4 152.5,42.4 150.1,42.4 150.1,177.6 			"/>
			<rect x="145.9" y="177.2" fill="#3787C8" width="44.8" height="2.6"/>
			<rect x="170.6" y="148.4" fill="#FFFFFF" width="3.5" height="3.5"/>
			<rect x="170.6" y="152.7" fill="#FFFFFF" width="3.5" height="3.5"/>
			<rect x="170.6" y="157" fill="#FFFFFF" width="3.5" height="3.5"/>
			<rect x="170.6" y="161.3" fill="#FFFFFF" width="3.5" height="3.5"/>
			<rect x="170.6" y="165.6" fill="#FFFFFF" width="3.5" height="3.5"/>
			<rect x="170.6" y="169.9" fill="#FFFFFF" width="3.5" height="3.5"/>
			<rect x="152.4" y="148.4" fill="#FFFFFF" width="3.5" height="3.5"/>
			<rect x="152.4" y="152.7" fill="#FFFFFF" width="3.5" height="3.5"/>
			<rect x="152.4" y="157" fill="#FFFFFF" width="3.5" height="3.5"/>
			<rect x="152.4" y="161.3" fill="#FFFFFF" width="3.5" height="3.5"/>
			<rect x="152.4" y="165.6" fill="#FFFFFF" width="3.5" height="3.5"/>
			<rect x="152.4" y="169.9" fill="#FFFFFF" width="3.5" height="3.5"/>
			<rect x="157.1" y="148.4" fill="#FFFFFF" width="3.5" height="3.5"/>
			<rect x="157.1" y="152.7" fill="#FFFFFF" width="3.5" height="3.5"/>
			<rect x="157.1" y="157" fill="#FFFFFF" width="3.5" height="3.5"/>
			<rect x="157.1" y="161.3" fill="#FFFFFF" width="3.5" height="3.5"/>
			<rect x="157.1" y="165.6" fill="#FFFFFF" width="3.5" height="3.5"/>
			<rect x="157.1" y="169.9" fill="#FFFFFF" width="3.5" height="3.5"/>
			<rect x="161.9" y="148.4" fill="#FFFFFF" width="3.5" height="3.5"/>
			<rect x="161.9" y="152.7" fill="#FFFFFF" width="3.5" height="3.5"/>
			<rect x="161.9" y="157" fill="#FFFFFF" width="3.5" height="3.5"/>
			<rect x="161.9" y="161.3" fill="#FFFFFF" width="3.5" height="3.5"/>
			<rect x="161.9" y="165.6" fill="#FFFFFF" width="3.5" height="3.5"/>
			<rect x="161.9" y="169.9" fill="#FFFFFF" width="3.5" height="3.5"/>
			<rect x="175.5" y="148.4" fill="#FFFFFF" width="3.5" height="3.5"/>
			<rect x="175.5" y="152.7" fill="#FFFFFF" width="3.5" height="3.5"/>
			<rect x="175.5" y="157" fill="#FFFFFF" width="3.5" height="3.5"/>
			<rect x="175.5" y="161.3" fill="#FFFFFF" width="3.5" height="3.5"/>
			<rect x="175.5" y="165.6" fill="#FFFFFF" width="3.5" height="3.5"/>
			<rect x="175.5" y="169.9" fill="#FFFFFF" width="3.5" height="3.5"/>
			<rect x="180.4" y="148.4" fill="#FFFFFF" width="3.5" height="3.5"/>
			<rect x="180.4" y="152.7" fill="#FFFFFF" width="3.5" height="3.5"/>
			<rect x="180.4" y="157" fill="#FFFFFF" width="3.5" height="3.5"/>
			<rect x="170.6" y="139.6" fill="#FFFFFF" width="3.5" height="3.5"/>
			<rect x="170.6" y="143.9" fill="#FFFFFF" width="3.5" height="3.5"/>
			<rect x="152.4" y="139.6" fill="#FFFFFF" width="3.5" height="3.5"/>
			<rect x="152.4" y="143.9" fill="#FFFFFF" width="3.5" height="3.5"/>
			<rect x="157.1" y="139.6" fill="#FFFFFF" width="3.5" height="3.5"/>
			<rect x="157.1" y="143.9" fill="#FFFFFF" width="3.5" height="3.5"/>
			<rect x="161.9" y="139.6" fill="#FFFFFF" width="3.5" height="3.5"/>
			<rect x="161.9" y="143.9" fill="#FFFFFF" width="3.5" height="3.5"/>
			<rect x="175.5" y="139.6" fill="#FFFFFF" width="3.5" height="3.5"/>
			<rect x="175.5" y="143.9" fill="#FFFFFF" width="3.5" height="3.5"/>
			<rect x="180.4" y="139.6" fill="#FFFFFF" width="3.5" height="3.5"/>
			<rect x="180.4" y="143.9" fill="#FFFFFF" width="3.5" height="3.5"/>
			<rect x="180.4" y="161.3" fill="#FFFFFF" width="3.5" height="3.5"/>
			<rect x="180.4" y="165.6" fill="#FFFFFF" width="3.5" height="3.5"/>
			<rect x="180.4" y="169.9" fill="#FFFFFF" width="3.5" height="3.5"/>
			<rect x="170.6" y="113.9" fill="#FFFFFF" width="3.5" height="3.5"/>
			<rect x="170.6" y="118.1" fill="#FFFFFF" width="3.5" height="3.5"/>
			<rect x="170.6" y="122.4" fill="#FFFFFF" width="3.5" height="3.5"/>
			<rect x="170.6" y="126.7" fill="#FFFFFF" width="3.5" height="3.5"/>
			<rect x="170.6" y="131" fill="#FFFFFF" width="3.5" height="3.5"/>
			<rect x="170.6" y="135.3" fill="#FFFFFF" width="3.5" height="3.5"/>
			<rect x="152.4" y="113.9" fill="#FFFFFF" width="3.5" height="3.5"/>
			<rect x="152.4" y="118.1" fill="#FFFFFF" width="3.5" height="3.5"/>
			<rect x="152.4" y="122.4" fill="#FFFFFF" width="3.5" height="3.5"/>
			<rect x="152.4" y="126.7" fill="#FFFFFF" width="3.5" height="3.5"/>
			<rect x="152.4" y="131" fill="#FFFFFF" width="3.5" height="3.5"/>
			<rect x="152.4" y="135.3" fill="#FFFFFF" width="3.5" height="3.5"/>
			<rect x="157.1" y="113.9" fill="#FFFFFF" width="3.5" height="3.5"/>
			<rect x="157.1" y="118.1" fill="#FFFFFF" width="3.5" height="3.5"/>
			<rect x="157.1" y="122.4" fill="#FFFFFF" width="3.5" height="3.5"/>
			<rect x="157.1" y="126.7" fill="#FFFFFF" width="3.5" height="3.5"/>
			<rect x="157.1" y="131" fill="#FFFFFF" width="3.5" height="3.5"/>
			<rect x="157.1" y="135.3" fill="#FFFFFF" width="3.5" height="3.5"/>
			<rect x="161.9" y="113.9" fill="#FFFFFF" width="3.5" height="3.5"/>
			<rect x="161.9" y="118.1" fill="#FFFFFF" width="3.5" height="3.5"/>
			<rect x="161.9" y="122.4" fill="#FFFFFF" width="3.5" height="3.5"/>
			<rect x="161.9" y="126.7" fill="#FFFFFF" width="3.5" height="3.5"/>
			<rect x="161.9" y="131" fill="#FFFFFF" width="3.5" height="3.5"/>
			<rect x="161.9" y="135.3" fill="#FFFFFF" width="3.5" height="3.5"/>
			<rect x="175.5" y="113.9" fill="#FFFFFF" width="3.5" height="3.5"/>
			<rect x="175.5" y="118.1" fill="#FFFFFF" width="3.5" height="3.5"/>
			<rect x="175.5" y="122.4" fill="#FFFFFF" width="3.5" height="3.5"/>
			<rect x="175.5" y="126.7" fill="#FFFFFF" width="3.5" height="3.5"/>
			<rect x="175.5" y="131" fill="#FFFFFF" width="3.5" height="3.5"/>
			<rect x="175.5" y="135.3" fill="#FFFFFF" width="3.5" height="3.5"/>
			<rect x="180.4" y="113.9" fill="#FFFFFF" width="3.5" height="3.5"/>
			<rect x="180.4" y="118.1" fill="#FFFFFF" width="3.5" height="3.5"/>
			<rect x="180.4" y="122.4" fill="#FFFFFF" width="3.5" height="3.5"/>
			<rect x="170.6" y="105.1" fill="#FFFFFF" width="3.5" height="3.5"/>
			<rect x="170.6" y="109.4" fill="#FFFFFF" width="3.5" height="3.5"/>
			<rect x="152.4" y="105.1" fill="#FFFFFF" width="3.5" height="3.5"/>
			<rect x="152.4" y="109.4" fill="#FFFFFF" width="3.5" height="3.5"/>
			<rect x="157.1" y="105.1" fill="#FFFFFF" width="3.5" height="3.5"/>
			<rect x="157.1" y="109.4" fill="#FFFFFF" width="3.5" height="3.5"/>
			<rect x="161.9" y="105.1" fill="#FFFFFF" width="3.5" height="3.5"/>
			<rect x="161.9" y="109.4" fill="#FFFFFF" width="3.5" height="3.5"/>
			<rect x="175.5" y="105.1" fill="#FFFFFF" width="3.5" height="3.5"/>
			<rect x="175.5" y="109.4" fill="#FFFFFF" width="3.5" height="3.5"/>
			<rect x="180.4" y="105.1" fill="#FFFFFF" width="3.5" height="3.5"/>
			<rect x="170.6" y="100.6" fill="#FFFFFF" width="3.5" height="3.5"/>
			<rect x="152.4" y="100.6" fill="#FFFFFF" width="3.5" height="3.5"/>
			<rect x="157.1" y="100.6" fill="#FFFFFF" width="3.5" height="3.5"/>
			<rect x="161.9" y="100.6" fill="#FFFFFF" width="3.5" height="3.5"/>
			<rect x="175.5" y="100.6" fill="#FFFFFF" width="3.5" height="3.5"/>
			<rect x="180.4" y="100.6" fill="#FFFFFF" width="3.5" height="3.5"/>
			<rect x="180.4" y="109.4" fill="#FFFFFF" width="3.5" height="3.5"/>
			<rect x="180.4" y="126.7" fill="#FFFFFF" width="3.5" height="3.5"/>
			<rect x="180.4" y="131" fill="#FFFFFF" width="3.5" height="3.5"/>
			<rect x="180.4" y="135.3" fill="#FFFFFF" width="3.5" height="3.5"/>
			<rect x="170.6" y="91.9" fill="#FFFFFF" width="3.5" height="3.5"/>
			<rect x="170.6" y="96.2" fill="#FFFFFF" width="3.5" height="3.5"/>
			<rect x="152.4" y="91.9" fill="#FFFFFF" width="3.5" height="3.5"/>
			<rect x="152.4" y="96.2" fill="#FFFFFF" width="3.5" height="3.5"/>
			<rect x="157.1" y="91.9" fill="#FFFFFF" width="3.5" height="3.5"/>
			<rect x="157.1" y="96.2" fill="#FFFFFF" width="3.5" height="3.5"/>
			<rect x="161.9" y="91.9" fill="#FFFFFF" width="3.5" height="3.5"/>
			<rect x="161.9" y="96.2" fill="#FFFFFF" width="3.5" height="3.5"/>
			<rect x="175.5" y="91.9" fill="#FFFFFF" width="3.5" height="3.5"/>
			<rect x="175.5" y="96.2" fill="#FFFFFF" width="3.5" height="3.5"/>
			<rect x="180.4" y="91.9" fill="#FFFFFF" width="3.5" height="3.5"/>
			<rect x="180.4" y="96.2" fill="#FFFFFF" width="3.5" height="3.5"/>
			<rect x="170.6" y="83.1" fill="#FFFFFF" width="3.5" height="3.5"/>
			<rect x="170.6" y="87.4" fill="#FFFFFF" width="3.5" height="3.5"/>
			<rect x="152.4" y="83.1" fill="#FFFFFF" width="3.5" height="3.5"/>
			<rect x="152.4" y="87.4" fill="#FFFFFF" width="3.5" height="3.5"/>
			<rect x="157.1" y="83.1" fill="#FFFFFF" width="3.5" height="3.5"/>
			<rect x="157.1" y="87.4" fill="#FFFFFF" width="3.5" height="3.5"/>
			<rect x="161.9" y="83.1" fill="#FFFFFF" width="3.5" height="3.5"/>
			<rect x="161.9" y="87.4" fill="#FFFFFF" width="3.5" height="3.5"/>
			<rect x="175.5" y="83.1" fill="#FFFFFF" width="3.5" height="3.5"/>
			<rect x="175.5" y="87.4" fill="#FFFFFF" width="3.5" height="3.5"/>
			<rect x="180.4" y="83.1" fill="#FFFFFF" width="3.5" height="3.5"/>
			<rect x="180.4" y="87.4" fill="#FFFFFF" width="3.5" height="3.5"/>
			<rect x="170.6" y="57.3" fill="#FFFFFF" width="3.5" height="3.5"/>
			<rect x="170.6" y="61.6" fill="#FFFFFF" width="3.5" height="3.5"/>
			<rect x="170.6" y="65.9" fill="#FFFFFF" width="3.5" height="3.5"/>
			<rect x="170.6" y="70.2" fill="#FFFFFF" width="3.5" height="3.5"/>
			<rect x="170.6" y="74.5" fill="#FFFFFF" width="3.5" height="3.5"/>
			<rect x="170.6" y="78.8" fill="#FFFFFF" width="3.5" height="3.5"/>
			<rect x="152.4" y="57.3" fill="#FFFFFF" width="3.5" height="3.5"/>
			<rect x="152.4" y="61.6" fill="#FFFFFF" width="3.5" height="3.5"/>
			<rect x="152.4" y="65.9" fill="#FFFFFF" width="3.5" height="3.5"/>
			<rect x="152.4" y="70.2" fill="#FFFFFF" width="3.5" height="3.5"/>
			<rect x="152.4" y="74.5" fill="#FFFFFF" width="3.5" height="3.5"/>
			<rect x="152.4" y="78.8" fill="#FFFFFF" width="3.5" height="3.5"/>
			<rect x="157.1" y="57.3" fill="#FFFFFF" width="3.5" height="3.5"/>
			<rect x="157.1" y="61.6" fill="#FFFFFF" width="3.5" height="3.5"/>
			<rect x="157.1" y="65.9" fill="#FFFFFF" width="3.5" height="3.5"/>
			<rect x="157.1" y="70.2" fill="#FFFFFF" width="3.5" height="3.5"/>
			<rect x="157.1" y="74.5" fill="#FFFFFF" width="3.5" height="3.5"/>
			<rect x="157.1" y="78.8" fill="#FFFFFF" width="3.5" height="3.5"/>
			<rect x="161.9" y="57.3" fill="#FFFFFF" width="3.5" height="3.5"/>
			<rect x="161.9" y="61.6" fill="#FFFFFF" width="3.5" height="3.5"/>
			<rect x="161.9" y="65.9" fill="#FFFFFF" width="3.5" height="3.5"/>
			<rect x="161.9" y="70.2" fill="#FFFFFF" width="3.5" height="3.5"/>
			<rect x="161.9" y="74.5" fill="#FFFFFF" width="3.5" height="3.5"/>
			<rect x="161.9" y="78.8" fill="#FFFFFF" width="3.5" height="3.5"/>
			<rect x="175.5" y="57.3" fill="#FFFFFF" width="3.5" height="3.5"/>
			<rect x="175.5" y="61.6" fill="#FFFFFF" width="3.5" height="3.5"/>
			<rect x="175.5" y="65.9" fill="#FFFFFF" width="3.5" height="3.5"/>
			<rect x="175.5" y="70.2" fill="#FFFFFF" width="3.5" height="3.5"/>
			<rect x="175.5" y="74.5" fill="#FFFFFF" width="3.5" height="3.5"/>
			<rect x="175.5" y="78.8" fill="#FFFFFF" width="3.5" height="3.5"/>
			<rect x="180.4" y="57.3" fill="#FFFFFF" width="3.5" height="3.5"/>
			<rect x="180.4" y="61.6" fill="#FFFFFF" width="3.5" height="3.5"/>
			<rect x="180.4" y="65.9" fill="#FFFFFF" width="3.5" height="3.5"/>
			<rect x="170.6" y="48.5" fill="#FFFFFF" width="3.5" height="3.5"/>
			<rect x="170.6" y="52.8" fill="#FFFFFF" width="3.5" height="3.5"/>
			<rect x="152.4" y="48.5" fill="#FFFFFF" width="3.5" height="3.5"/>
			<rect x="152.4" y="52.8" fill="#FFFFFF" width="3.5" height="3.5"/>
			<rect x="157.1" y="48.5" fill="#FFFFFF" width="3.5" height="3.5"/>
			<rect x="157.1" y="52.8" fill="#FFFFFF" width="3.5" height="3.5"/>
			<rect x="161.9" y="48.5" fill="#FFFFFF" width="3.5" height="3.5"/>
			<rect x="161.9" y="52.8" fill="#FFFFFF" width="3.5" height="3.5"/>
			<rect x="175.5" y="48.5" fill="#FFFFFF" width="3.5" height="3.5"/>
			<rect x="175.5" y="52.8" fill="#FFFFFF" width="3.5" height="3.5"/>
			<rect x="180.4" y="48.5" fill="#FFFFFF" width="3.5" height="3.5"/>
			<rect x="170.6" y="44.1" fill="#FFFFFF" width="3.5" height="3.5"/>
			<rect x="152.4" y="44.1" fill="#FFFFFF" width="3.5" height="3.5"/>
			<rect x="157.1" y="44.1" fill="#FFFFFF" width="3.5" height="3.5"/>
			<rect x="161.9" y="44.1" fill="#FFFFFF" width="3.5" height="3.5"/>
			<rect x="175.5" y="44.1" fill="#FFFFFF" width="3.5" height="3.5"/>
			<rect x="180.4" y="44.1" fill="#FFFFFF" width="3.5" height="3.5"/>
			<rect x="180.4" y="52.8" fill="#FFFFFF" width="3.5" height="3.5"/>
			<rect x="180.4" y="70.2" fill="#FFFFFF" width="3.5" height="3.5"/>
			<rect x="180.4" y="74.5" fill="#FFFFFF" width="3.5" height="3.5"/>
			<rect x="180.4" y="78.8" fill="#FFFFFF" width="3.5" height="3.5"/>
		</g>
		<rect x="131" y="77.6" fill="#3787C8" width="20.5" height="9.4"/>
		<rect x="132.7" y="80.2" fill="#FFFFFF" width="3.5" height="3.5"/>
		<rect x="137" y="80.2" fill="#FFFFFF" width="3.5" height="3.5"/>
		<rect x="141.3" y="80.2" fill="#FFFFFF" width="3.5" height="3.5"/>
		<rect x="145.6" y="80.2" fill="#FFFFFF" width="3.5" height="3.5"/>
	</g>
	<polyline fill="#97989B" points="592.4,179.6 592.4,180.9 19.2,180.9 19.2,179.6 	"/>
	<polygon fill="#E3E4E4" points="321.2,153.3 329.8,153.3 329.8,101.1 321.2,110 	"/>
	<polygon fill="#E3E4E4" points="318.1,165.1 326.7,165.1 326.7,136.2 318.1,145 	"/>
	<rect x="302.7" y="114.2" fill="#E3E4E4" width="14" height="42.8"/>
	<rect x="325.7" y="94.5" fill="#E3E4E4" width="3.8" height="70.9"/>
	<rect x="282.1" y="105.3" fill="#E3E4E4" width="11.5" height="59.9"/>
	<rect x="279.6" y="109.1" fill="#E3E4E4" width="13.6" height="26.5"/>
	<rect x="282.4" y="131.2" fill="#E3E4E4" width="13.6" height="32.4"/>
	<path fill="#E3E4E4" d="M298.3,169.8c0.1-0.4,0-30.9,0-30.9s-1.1-12.3,6.7-12.3c4.3,0,6.4,0,6.4,0v43.5L298.3,169.8z"/>
	<ellipse fill="#E3E4E4" cx="316.5" cy="136.7" rx="3" ry="25.2"/>
	<g>
		<rect x="254" y="155.6" fill="#B0B2B6" width="17.7" height="24.3"/>
		<rect x="202" y="156.1" fill="#B0B2B6" width="15.3" height="23.8"/>
		<rect x="197.9" y="175.6" fill="#B0B2B6" width="75.6" height="2.2"/>
		<rect x="214.6" y="127.2" fill="#B0B2B6" width="42.9" height="2.2"/>
		<rect x="200.3" y="154.3" fill="#B0B2B6" width="72.7" height="2.2"/>
		<rect x="221.3" y="111.2" fill="#B0B2B6" width="29.9" height="1.3"/>
		<rect x="216.7" y="128.5" fill="#B0B2B6" width="38.7" height="47.4"/>
		<rect x="223.2" y="111.6" fill="#B0B2B6" width="26.2" height="18"/>
		<rect x="226.2" y="93.3" fill="#B0B2B6" width="20.2" height="18"/>
		<rect x="219.4" y="129.7" fill="#FFFFFF" width="3.8" height="3.8"/>
		<rect x="224.3" y="129.7" fill="#FFFFFF" width="3.8" height="3.8"/>
		<rect x="219.4" y="134.6" fill="#FFFFFF" width="3.8" height="3.8"/>
		<rect x="224.3" y="134.6" fill="#FFFFFF" width="3.8" height="3.8"/>
		<rect x="219.4" y="139.5" fill="#FFFFFF" width="3.8" height="3.8"/>
		<rect x="224.3" y="139.5" fill="#FFFFFF" width="3.8" height="3.8"/>
		<rect x="224.7" y="112.6" fill="#FFFFFF" width="3.8" height="3.8"/>
		<rect x="229.6" y="112.6" fill="#FFFFFF" width="3.8" height="3.8"/>
		<rect x="224.7" y="117.6" fill="#FFFFFF" width="3.8" height="3.8"/>
		<rect x="229.6" y="117.6" fill="#FFFFFF" width="3.8" height="3.8"/>
		<rect x="224.7" y="122.5" fill="#FFFFFF" width="3.8" height="3.8"/>
		<rect x="228.8" y="95.1" fill="#FFFFFF" width="3.8" height="3.8"/>
		<rect x="235.2" y="95.1" fill="#FFFFFF" width="2.3" height="13.6"/>
		<rect x="235.2" y="112.6" fill="#FFFFFF" width="2.3" height="13.7"/>
		<rect x="235.2" y="129.7" fill="#FFFFFF" width="2.3" height="42.7"/>
		<rect x="228.8" y="100" fill="#FFFFFF" width="3.8" height="3.8"/>
		<rect x="228.8" y="105" fill="#FFFFFF" width="3.8" height="3.8"/>
		<rect x="240.3" y="95.1" fill="#FFFFFF" width="3.8" height="3.8"/>
		<rect x="240.3" y="100" fill="#FFFFFF" width="3.8" height="3.8"/>
		<rect x="240.3" y="105" fill="#FFFFFF" width="3.8" height="3.8"/>
		<rect x="229.6" y="122.5" fill="#FFFFFF" width="3.8" height="3.8"/>
		<rect x="239.4" y="112.6" fill="#FFFFFF" width="3.8" height="3.8"/>
		<rect x="244.4" y="112.6" fill="#FFFFFF" width="3.8" height="3.8"/>
		<rect x="239.4" y="117.6" fill="#FFFFFF" width="3.8" height="3.8"/>
		<rect x="244.4" y="117.6" fill="#FFFFFF" width="3.8" height="3.8"/>
		<rect x="239.4" y="122.5" fill="#FFFFFF" width="3.8" height="3.8"/>
		<rect x="244.4" y="122.5" fill="#FFFFFF" width="3.8" height="3.8"/>
		<rect x="219.4" y="144.5" fill="#FFFFFF" width="3.8" height="3.8"/>
		<rect x="224.3" y="144.5" fill="#FFFFFF" width="3.8" height="3.8"/>
		<rect x="219.4" y="149.4" fill="#FFFFFF" width="3.8" height="3.8"/>
		<rect x="224.3" y="149.4" fill="#FFFFFF" width="3.8" height="3.8"/>
		<rect x="219.4" y="154.3" fill="#FFFFFF" width="3.8" height="3.8"/>
		<rect x="224.3" y="154.3" fill="#FFFFFF" width="3.8" height="3.8"/>
		<rect x="219.4" y="159.2" fill="#FFFFFF" width="3.8" height="3.8"/>
		<rect x="224.3" y="159.2" fill="#FFFFFF" width="3.8" height="3.8"/>
		<rect x="205.3" y="159.4" fill="#FFFFFF" width="3.8" height="3.8"/>
		<rect x="210.2" y="159.4" fill="#FFFFFF" width="3.8" height="3.8"/>
		<rect x="205.3" y="164.4" fill="#FFFFFF" width="3.8" height="3.8"/>
		<rect x="210.2" y="164.4" fill="#FFFFFF" width="3.8" height="3.8"/>
		<rect x="205.3" y="169.3" fill="#FFFFFF" width="3.8" height="3.8"/>
		<rect x="210.2" y="169.3" fill="#FFFFFF" width="3.8" height="3.8"/>
		<rect x="258.8" y="159.4" fill="#FFFFFF" width="3.8" height="3.8"/>
		<rect x="263.7" y="159.4" fill="#FFFFFF" width="3.8" height="3.8"/>
		<rect x="258.8" y="164.4" fill="#FFFFFF" width="3.8" height="3.8"/>
		<rect x="263.7" y="164.4" fill="#FFFFFF" width="3.8" height="3.8"/>
		<rect x="258.8" y="169.3" fill="#FFFFFF" width="3.8" height="3.8"/>
		<rect x="263.7" y="169.3" fill="#FFFFFF" width="3.8" height="3.8"/>
		<rect x="219.4" y="164.2" fill="#FFFFFF" width="3.8" height="3.8"/>
		<rect x="224.3" y="164.2" fill="#FFFFFF" width="3.8" height="3.8"/>
		<rect x="219.4" y="169.1" fill="#FFFFFF" width="3.8" height="3.8"/>
		<rect x="224.3" y="169.1" fill="#FFFFFF" width="3.8" height="3.8"/>
		<rect x="244.1" y="129.7" fill="#FFFFFF" width="3.8" height="3.8"/>
		<rect x="249.1" y="129.7" fill="#FFFFFF" width="3.8" height="3.8"/>
		<rect x="244.1" y="134.6" fill="#FFFFFF" width="3.8" height="3.8"/>
		<rect x="249.1" y="134.6" fill="#FFFFFF" width="3.8" height="3.8"/>
		<rect x="244.1" y="139.5" fill="#FFFFFF" width="3.8" height="3.8"/>
		<rect x="249.1" y="139.5" fill="#FFFFFF" width="3.8" height="3.8"/>
		<rect x="244.1" y="144.5" fill="#FFFFFF" width="3.8" height="3.8"/>
		<rect x="249.1" y="144.5" fill="#FFFFFF" width="3.8" height="3.8"/>
		<rect x="244.1" y="149.4" fill="#FFFFFF" width="3.8" height="3.8"/>
		<rect x="249.1" y="149.4" fill="#FFFFFF" width="3.8" height="3.8"/>
		<rect x="244.1" y="154.3" fill="#FFFFFF" width="3.8" height="3.8"/>
		<rect x="249.1" y="154.3" fill="#FFFFFF" width="3.8" height="3.8"/>
		<rect x="244.1" y="159.2" fill="#FFFFFF" width="3.8" height="3.8"/>
		<rect x="249.1" y="159.2" fill="#FFFFFF" width="3.8" height="3.8"/>
		<rect x="244.1" y="164.2" fill="#FFFFFF" width="3.8" height="3.8"/>
		<rect x="249.1" y="164.2" fill="#FFFFFF" width="3.8" height="3.8"/>
		<rect x="244.1" y="169.1" fill="#FFFFFF" width="3.8" height="3.8"/>
		<rect x="249.1" y="169.1" fill="#FFFFFF" width="3.8" height="3.8"/>
		<rect x="224.9" y="92.2" fill="#B0B2B6" width="22.5" height="1.1"/>
		<rect x="231" y="90.5" fill="#B0B2B6" width="10.3" height="1.8"/>
		<rect x="232.3" y="88.2" fill="#B0B2B6" width="7.7" height="2.5"/>
		<rect x="233.3" y="86.1" fill="#B0B2B6" width="5.6" height="2.2"/>
		<rect x="235.7" y="73.8" fill="#B0B2B6" width="0.7" height="13.4"/>
		<polygon fill="#B0B2B6" points="236.4,74.8 241,74.8 239.7,76.2 241,77.9 236.4,77.9 		"/>
	</g>
	<g>
		<g>
			<polygon fill="#808083" points="352.8,175.2 333.2,175.7 333.2,178.8 352.9,178.2 			"/>
		</g>
		<g>
			<path fill="#FFFFFF" d="M340.2,171.8l-2.4,2.5c0,0,1.3,0,1.3,0s2-2.5,2-2.5L340.2,171.8z"/>
		</g>
		<g>
			<path fill="#E7363E" d="M332.2,176.3c0,0-0.2-1.2,1.5-1.7c1.4-0.4,3-0.4,3.8-0.4c0.9,0,1.3,0,1.3,0l2-2.3l-0.7-0.1
				c0,0,0.1-0.4,2.2-0.5c2.1,0,5.5,0,6.5,0c1,0,1.5,0.2,1.5,0.2l0.4-0.2l0.8,0.1l-0.7,0.3l0.1,0.3l-0.4,0l1.1,1.7l0.6,0
				c0,0,0.5,0.1,0.7,0.9c0.1,0.7,0.2,1.4,0.2,1.4v1h-1c0,0-0.6-1.2-2-1.2c-2,0-2.2,2-2.2,2l-10.2,0.1c0,0,0.1-2.2-2.2-2.2
				c-1.6,0-2,1.7-2,1.7h-1.5L332.2,176.3z"/>
		</g>
		<g>
			
				<ellipse transform="matrix(0.6824 -0.7309 0.7309 0.6824 -22.3688 299.412)" fill="#FFFFFF" cx="333.4" cy="175.4" rx="0.9" ry="0.4"/>
		</g>
		<g>
			<path fill="#767779" d="M331.8,176.6l0.5-0.3l1.2,0c0,0,0.6-1.1,2.3-1.1c2.4,0,2.6,2.7,2.6,2.7l9.2-0.1c0,0,0-2.6,2.6-2.6
				c1.6,0,2,0.8,2,0.8l0.7,0l0.6,0l0.1,1.9c0,0-0.2,0.3-0.5,0.3c-0.3,0-0.6,0-0.6,0s-0.1-2.4-2.3-2.4c-2.3,0-2.1,2.7-2.1,2.7
				l-10.3,0.2c0,0,0.3-2.9-2.1-2.9c-2.4,0-2.2,2.8-2.2,2.8l-1,0c0,0,0.3,0-0.2,0S331.8,176.7,331.8,176.6"/>
		</g>
		<g>
			<polyline fill="#FFFFFF" points="341.5,171.9 339.6,174.2 345.8,173.9 345.9,171.9 341.5,171.9 			"/>
		</g>
		<g>
			<path fill="#FFFFFF" d="M346.8,172.2c0,0-0.3,0-0.3,0.3c0,0.4,0,1.1,0,1.1s0,0.2,0.4,0.2c0.6,0,3.2-0.1,3.2-0.1s0.2-0.1,0.1-0.4
				c-0.2-0.5-0.5-1-0.5-1s-0.1-0.2-0.9-0.2S346.8,172.2,346.8,172.2z"/>
		</g>
		<g>
			<ellipse fill="#767779" cx="345.2" cy="174.9" rx="0.4" ry="0.3"/>
		</g>
		<g>
			<path fill="#767779" d="M345.9,174.8c0,0.1,0,0.1-0.1,0.1h-1.2c-0.1,0-0.1,0-0.1-0.1l0,0c0-0.1,0-0.1,0.1-0.1h1.2
				C345.9,174.7,345.9,174.8,345.9,174.8L345.9,174.8z"/>
		</g>
		<g>
			<path fill="#767779" d="M338.8,177.9c0,0-0.1-2.1,0-2.7c0.1-0.7,0.4-1.1,0.8-1.1l0,0c-0.6,0-0.8,0.7-0.8,1
				C338.8,175.8,338.9,177.9,338.8,177.9L338.8,177.9z"/>
		</g>
		<g>
			<path fill="#767779" d="M345.9,177.9L345.9,177.9c0,0,0.2-1,0.3-2.3c0.1-0.8-0.1-1.2-0.2-1.5c-0.1-0.1-0.2-0.2-0.2-0.2l0,0
				c0,0,0.1,0,0.2,0.2c0.2,0.2,0.4,0.6,0.3,1.5C346.1,176.9,345.9,177.9,345.9,177.9z"/>
		</g>
		<g>
			
				<rect x="338.8" y="174" transform="matrix(0.9993 -3.614450e-02 3.614450e-02 0.9993 -6.063 12.5939)" fill="#767779" width="13" height="0"/>
		</g>
		<g>
			<path fill="#E7363E" d="M340.1,174c0,0-0.1-0.3,0.3-0.4c0.4-0.1,0.5-0.1,0.5-0.1s0.2,0.1,0.2,0.4s-0.2,0.5-0.2,0.5
				S340.2,174.3,340.1,174"/>
		</g>
		<g>
			<circle fill="#555557" cx="335.7" cy="178.1" r="2"/>
		</g>
		<g>
			<circle fill="#FFFFFF" cx="335.7" cy="178.1" r="1.5"/>
		</g>
		<g>
			<polygon fill="#989A9C" points="335.5,176.6 335.5,177.6 335.3,177.8 334.3,177.5 334.3,177.8 335.1,178.1 335.2,178.4 
				334.7,179.2 335,179.4 335.5,178.7 335.9,178.6 336.5,179.4 336.7,179.2 336.2,178.4 336.3,178 337.2,177.8 337.1,177.5 
				336.1,177.7 335.9,177.5 335.8,176.6 			"/>
		</g>
		<g>
			<circle fill="#FFFFFF" cx="335.7" cy="178.1" r="0.3"/>
		</g>
		<g>
			<circle fill="#555557" cx="350.3" cy="178.1" r="2"/>
		</g>
		<g>
			<circle fill="#FFFFFF" cx="350.3" cy="178.1" r="1.5"/>
		</g>
		<g>
			<polygon fill="#989A9C" points="350.1,176.6 350.1,177.6 349.9,177.8 348.9,177.5 348.9,177.8 349.7,178.1 349.8,178.4 
				349.3,179.2 349.6,179.4 350.1,178.7 350.5,178.6 351.1,179.4 351.3,179.2 350.8,178.4 350.9,178 351.8,177.8 351.7,177.5 
				350.7,177.7 350.5,177.5 350.4,176.6 			"/>
		</g>
		<g>
			<circle fill="#FFFFFF" cx="350.3" cy="178.1" r="0.3"/>
		</g>
		<g>
			<path fill="#B02933" d="M352.1,174.4c0,0,0.3,1.1,0.3,1.1s0.1,0.3,0.4,0.2c0.3,0,0.2-0.2,0.2-0.6c-0.1-0.3-0.3-0.9-0.5-1
				C352.2,174.1,352.1,174.2,352.1,174.4"/>
		</g>
	</g>
	<g>
		<ellipse fill="#FFFFFF" cx="287.7" cy="175.3" rx="0.1" ry="0.5"/>
	</g>
	<g>
		<g>
			<rect x="287.7" y="175.1" fill="#808083" width="21.2" height="2.9"/>
		</g>
		<g>
			<path fill="#3787C8" d="M310.6,175.2l-0.1-1l0.1,0l0-0.3l-0.3-0.3c0,0-0.1-0.2-0.5-0.6c-0.4-0.4-1.4-1.3-1.4-1.3s0.1-0.2,0.2-0.3
				c0.1-0.1,0.1-0.2,0.1-0.2l-1.8-0.2c0,0-0.2-0.2-0.3-0.2c-0.1,0-0.2,0-0.2,0s0-0.2-0.2-0.2c-0.3,0-0.5,0-0.5,0.1s-0.1,0.1-0.1,0.1
				s-2-0.2-4.2-0.2c-2.2,0.1-3.1,0.2-3.3,0.3c-0.1,0.1-0.2,0.1-0.2,0.1s-1.6,0.3-3,1.4c-1.4,1.1-1.8,1.3-1.8,1.3l-0.5-0.1
				c0,0-2.6,0.3-4.1,0.7c-1.5,0.4-2.1,0.5-2.3,1.2c-0.2,0.6-0.1,1.1-0.1,1.1l-0.1,0.1v0.4l0.1,0c0,0,0.2,0.5,0.3,0.7
				c0.1,0.2,0.1,0.4,0.5,0.4s1,0.1,1,0.1s0.3,0,0.3-0.3c0-0.4,0-2.5,2.5-2.5c2.2,0,2.2,2.9,2.2,2.9h10.6c0,0-0.3-2.9,2.4-2.9
				c1.9,0,2.2,2.5,2.2,2.5s-0.1,0.2,0.3,0.2c0.3,0,1.7,0,1.7,0s0.6-0.1,0.6-0.5c0-0.4,0.1-0.5,0.1-0.5s0.3-0.1,0.3-0.4
				c0-0.3,0-0.5,0-0.5l-0.2-0.1c0,0,0.1-0.2,0-0.3S310.6,175.2,310.6,175.2z"/>
		</g>
		<g>
			<path fill="#808083" d="M308,172.7c0,0,0.3-0.2-0.1-0.6c-0.3-0.5-0.4-0.7-1.3-0.8c-1-0.1-1.6-0.3-3.6-0.2c-2,0-4.7,0-5.5,0.4
				c-0.8,0.5-1.6,1.1-2.1,1.5c-0.5,0.4-0.9,0.8-0.9,0.8l10.2-0.4L308,172.7z"/>
		</g>
		<g>
			<path fill="#555557" d="M302.5,177.3h-2.9l0,0c0,0,0-1.4,0-2.2c0-0.8,0.3-1.5,0.3-1.5l0.7-2.5l0,0l-0.7,2.5c0,0-0.3,0.7-0.3,1.5
				c0,0.7,0,2,0,2.2L302.5,177.3c0-0.1,0.2-0.1,0.6-0.6c0.3-0.4,0.7-0.9,1.1-1.2c0.4-0.2,0.6-0.3,0.7-0.3c0-0.1,0.3-0.6,0.3-1.1
				c0.1-0.5,0-0.8,0-0.8l-0.5-2.2l0,0l0.5,2.2c0,0,0,0.3,0,0.9c-0.1,0.5-0.3,1.1-0.3,1.1l0,0l0,0c0,0-0.3,0.1-0.7,0.3
				c-0.5,0.2-0.8,0.7-1.1,1.1C302.8,177.2,302.5,177.3,302.5,177.3L302.5,177.3z"/>
		</g>
		<g>
			<path fill="#555557" d="M294.1,177.3L294.1,177.3c0,0-0.2-0.5-0.2-1.8c0-1.1,0.1-1.3,0.3-1.5c0,0,0,0,0.1-0.1
				c0.2-0.2,0.3-0.3,0.3-0.3l0,0c0,0-0.1,0.1-0.3,0.3c0,0,0,0-0.1,0.1c-0.1,0.2-0.3,0.3-0.3,1.4
				C293.9,176.7,294.1,177.2,294.1,177.3l5.5-0.1l0,0L294.1,177.3z"/>
		</g>
		<g>
			<path fill="#F4F4F4" d="M297.1,171.2l0.3,0.2c0,0-1.2,0.8-1.8,1.2s-1.1,1-1.5,0.9s-0.6-0.1-0.6-0.1s1-0.7,1.9-1.3
				C296.3,171.4,297.1,171.2,297.1,171.2z"/>
		</g>
		<g>
			<path fill="#555557" d="M298.2,174.7C298.2,174.8,298.3,174.8,298.2,174.7l1.1,0.1c0.1,0,0.1,0,0.1-0.1l0,0c0-0.1,0-0.1-0.1-0.1
				L298.2,174.7C298.3,174.7,298.2,174.7,298.2,174.7L298.2,174.7z"/>
		</g>
		<g>
			<ellipse fill="#555557" cx="298.8" cy="174.7" rx="0.4" ry="0.2"/>
		</g>
		<g>
			<path fill="#555557" d="M303.5,174.7C303.5,174.8,303.6,174.8,303.5,174.7l1.1,0.1c0.1,0,0.1,0,0.1-0.1l0,0c0-0.1,0-0.1-0.1-0.1
				L303.5,174.7C303.6,174.7,303.5,174.7,303.5,174.7L303.5,174.7z"/>
		</g>
		<g>
			<ellipse fill="#555557" cx="304.1" cy="174.7" rx="0.4" ry="0.2"/>
		</g>
		<g>
			<path fill="#FFFFFF" d="M286.9,175c0,0,0-0.2,0.2-0.2c0.2,0,0.4,0.1,0.4,0.1l0.4-0.1c0,0,0,0.1,0.1,0.3s0.1,0.3,0.1,0.3
				s-0.8,0.4-1,0.4s-0.5,0.1-0.5,0.1L286.9,175z"/>
		</g>
		<g>
			<g>
				<path fill="#FFFFFF" d="M307.7,172.1c0,0-0.2-0.5-0.7-0.6s-1.8-0.2-1.8-0.2l0.7,1.7l1.7-0.3
					C307.6,172.8,308.2,172.8,307.7,172.1"/>
			</g>
			<g>
				<polygon fill="#FFFFFF" points="304.6,171.2 305.1,173.3 304.9,173.3 303.6,173.4 303.9,171.2 				"/>
			</g>
			<g>
				<polygon fill="#FFFFFF" points="303.7,171.2 303.4,173.4 300.5,173.5 300.9,171.2 				"/>
			</g>
			<g>
				<path fill="#FFFFFF" d="M300.3,171.2l-0.9,2.4l-4.5,0.2c0,0,1.1-1.1,2-1.6c0.9-0.6,1.1-0.7,2.1-0.8
					C299.8,171.2,300.3,171.2,300.3,171.2z"/>
			</g>
		</g>
		<g>
			<g>
				<circle fill="#555557" cx="305.8" cy="177.7" r="2"/>
			</g>
			<g>
				<circle fill="#FFFFFF" cx="305.8" cy="177.7" r="1.4"/>
			</g>
			<g>
				<path fill="#989A9C" d="M305.9,176.6h-0.3c0,0,0,0.5,0.1,0.6C306,177.1,305.9,176.6,305.9,176.6z"/>
			</g>
			<g>
				<path fill="#989A9C" d="M305.6,178.8h0.3c0,0,0-0.5-0.1-0.6C305.6,178.3,305.6,178.8,305.6,178.8z"/>
			</g>
			<g>
				<path fill="#989A9C" d="M306.3,178.7l0.3-0.2c0,0-0.3-0.4-0.4-0.4C306,178.3,306.3,178.7,306.3,178.7z"/>
			</g>
			<g>
				<path fill="#989A9C" d="M306.3,178.7l0.3-0.2c0,0-0.3-0.4-0.4-0.4C306,178.3,306.3,178.7,306.3,178.7z"/>
			</g>
			<g>
				<path fill="#989A9C" d="M306.3,178.7l0.3-0.2c0,0-0.3-0.4-0.4-0.4C306,178.3,306.3,178.7,306.3,178.7z"/>
			</g>
			<g>
				<path fill="#989A9C" d="M304.7,177.2l-0.1,0.3c0,0,0.5,0.1,0.6,0C305.3,177.3,304.7,177.2,304.7,177.2z"/>
			</g>
			<g>
				<path fill="#989A9C" d="M304.7,177.2l-0.1,0.3c0,0,0.5,0.1,0.6,0C305.3,177.3,304.7,177.2,304.7,177.2z"/>
			</g>
			<g>
				<path fill="#989A9C" d="M304.7,177.2l-0.1,0.3c0,0,0.5,0.1,0.6,0C305.3,177.3,304.7,177.2,304.7,177.2z"/>
			</g>
			<g>
				<path fill="#989A9C" d="M305.3,176.7l-0.3,0.2c0,0,0.3,0.4,0.4,0.4C305.6,177.2,305.3,176.7,305.3,176.7z"/>
			</g>
			<g>
				<path fill="#989A9C" d="M305.3,176.7l-0.3,0.2c0,0,0.3,0.4,0.4,0.4C305.6,177.2,305.3,176.7,305.3,176.7z"/>
			</g>
			<g>
				<path fill="#989A9C" d="M305.3,176.7l-0.3,0.2c0,0,0.3,0.4,0.4,0.4C305.6,177.2,305.3,176.7,305.3,176.7z"/>
			</g>
			<g>
				<path fill="#989A9C" d="M306.9,177.5l-0.1-0.3c0,0-0.5,0.2-0.5,0.3C306.4,177.7,306.9,177.5,306.9,177.5z"/>
			</g>
			<g>
				<path fill="#989A9C" d="M306.9,177.5l-0.1-0.3c0,0-0.5,0.2-0.5,0.3C306.4,177.7,306.9,177.5,306.9,177.5z"/>
			</g>
			<g>
				<path fill="#989A9C" d="M306.9,177.5l-0.1-0.3c0,0-0.5,0.2-0.5,0.3C306.4,177.7,306.9,177.5,306.9,177.5z"/>
			</g>
			<g>
				<path fill="#989A9C" d="M306.6,176.9l-0.3-0.2c0,0-0.3,0.4-0.2,0.5C306.3,177.4,306.6,176.9,306.6,176.9z"/>
			</g>
			<g>
				<path fill="#989A9C" d="M306.6,176.9l-0.3-0.2c0,0-0.3,0.4-0.2,0.5C306.3,177.4,306.6,176.9,306.6,176.9z"/>
			</g>
			<g>
				<path fill="#989A9C" d="M306.6,176.9l-0.3-0.2c0,0-0.3,0.4-0.2,0.5C306.3,177.4,306.6,176.9,306.6,176.9z"/>
			</g>
			<g>
				<path fill="#989A9C" d="M306.8,178.2l0.1-0.3c0,0-0.5-0.2-0.6-0.1C306.3,178,306.8,178.2,306.8,178.2z"/>
			</g>
			<g>
				<path fill="#989A9C" d="M306.8,178.2l0.1-0.3c0,0-0.5-0.2-0.6-0.1C306.3,178,306.8,178.2,306.8,178.2z"/>
			</g>
			<g>
				<path fill="#989A9C" d="M306.8,178.2l0.1-0.3c0,0-0.5-0.2-0.6-0.1C306.3,178,306.8,178.2,306.8,178.2z"/>
			</g>
			<g>
				<path fill="#989A9C" d="M305,178.5l0.3,0.2c0,0,0.3-0.4,0.2-0.5C305.3,178.1,305,178.5,305,178.5z"/>
			</g>
			<g>
				<path fill="#989A9C" d="M305,178.5l0.3,0.2c0,0,0.3-0.4,0.2-0.5C305.3,178.1,305,178.5,305,178.5z"/>
			</g>
			<g>
				<path fill="#989A9C" d="M305,178.5l0.3,0.2c0,0,0.3-0.4,0.2-0.5C305.3,178.1,305,178.5,305,178.5z"/>
			</g>
			<g>
				<path fill="#989A9C" d="M304.6,177.9l0.1,0.3c0,0,0.5-0.2,0.5-0.3C305.2,177.7,304.6,177.9,304.6,177.9z"/>
			</g>
			<g>
				<path fill="#989A9C" d="M304.6,177.9l0.1,0.3c0,0,0.5-0.2,0.5-0.3C305.2,177.7,304.6,177.9,304.6,177.9z"/>
			</g>
			<g>
				<path fill="#989A9C" d="M304.6,177.9l0.1,0.3c0,0,0.5-0.2,0.5-0.3C305.2,177.7,304.6,177.9,304.6,177.9z"/>
			</g>
			<g>
				<circle fill="#989A9C" cx="305.8" cy="177.7" r="0.2"/>
			</g>
			<g>
				<circle fill="#989A9C" cx="306.1" cy="177.6" r="0.1"/>
			</g>
			<g>
				<circle fill="#989A9C" cx="305.8" cy="177.4" r="0.1"/>
			</g>
			<g>
				<circle fill="#989A9C" cx="305.4" cy="177.6" r="0.1"/>
			</g>
			<g>
				<circle fill="#989A9C" cx="305.6" cy="178" r="0.1"/>
			</g>
			<g>
				<circle fill="#989A9C" cx="306" cy="178" r="0.1"/>
			</g>
		</g>
		<g>
			<g>
				<circle fill="#555557" cx="290.5" cy="177.7" r="2"/>
			</g>
			<g>
				<circle fill="#FFFFFF" cx="290.5" cy="177.7" r="1.4"/>
			</g>
			<g>
				<path fill="#989A9C" d="M290.7,176.6h-0.3c0,0,0,0.5,0.1,0.6C290.7,177.1,290.7,176.6,290.7,176.6z"/>
			</g>
			<g>
				<path fill="#989A9C" d="M290.4,178.8h0.3c0,0,0-0.5-0.1-0.6C290.4,178.3,290.4,178.8,290.4,178.8z"/>
			</g>
			<g>
				<path fill="#989A9C" d="M291.1,178.7l0.3-0.2c0,0-0.3-0.4-0.4-0.4C290.7,178.3,291.1,178.7,291.1,178.7z"/>
			</g>
			<g>
				<path fill="#989A9C" d="M291.1,178.7l0.3-0.2c0,0-0.3-0.4-0.4-0.4C290.7,178.3,291.1,178.7,291.1,178.7z"/>
			</g>
			<g>
				<path fill="#989A9C" d="M291.1,178.7l0.3-0.2c0,0-0.3-0.4-0.4-0.4C290.7,178.3,291.1,178.7,291.1,178.7z"/>
			</g>
			<g>
				<path fill="#989A9C" d="M289.5,177.2l-0.1,0.3c0,0,0.5,0.1,0.6,0C290,177.3,289.5,177.2,289.5,177.2z"/>
			</g>
			<g>
				<path fill="#989A9C" d="M289.5,177.2l-0.1,0.3c0,0,0.5,0.1,0.6,0C290,177.3,289.5,177.2,289.5,177.2z"/>
			</g>
			<g>
				<path fill="#989A9C" d="M289.5,177.2l-0.1,0.3c0,0,0.5,0.1,0.6,0C290,177.3,289.5,177.2,289.5,177.2z"/>
			</g>
			<g>
				<path fill="#989A9C" d="M290,176.7l-0.3,0.2c0,0,0.3,0.4,0.4,0.4C290.4,177.2,290,176.7,290,176.7z"/>
			</g>
			<g>
				<path fill="#989A9C" d="M290,176.7l-0.3,0.2c0,0,0.3,0.4,0.4,0.4C290.4,177.2,290,176.7,290,176.7z"/>
			</g>
			<g>
				<path fill="#989A9C" d="M290,176.7l-0.3,0.2c0,0,0.3,0.4,0.4,0.4C290.4,177.2,290,176.7,290,176.7z"/>
			</g>
			<g>
				<path fill="#989A9C" d="M291.7,177.5l-0.1-0.3c0,0-0.5,0.2-0.5,0.3C291.2,177.7,291.7,177.5,291.7,177.5z"/>
			</g>
			<g>
				<path fill="#989A9C" d="M291.7,177.5l-0.1-0.3c0,0-0.5,0.2-0.5,0.3C291.2,177.7,291.7,177.5,291.7,177.5z"/>
			</g>
			<g>
				<path fill="#989A9C" d="M291.7,177.5l-0.1-0.3c0,0-0.5,0.2-0.5,0.3C291.2,177.7,291.7,177.5,291.7,177.5z"/>
			</g>
			<g>
				<path fill="#989A9C" d="M291.4,176.9l-0.3-0.2c0,0-0.3,0.4-0.2,0.5C291,177.4,291.4,176.9,291.4,176.9z"/>
			</g>
			<g>
				<path fill="#989A9C" d="M291.4,176.9l-0.3-0.2c0,0-0.3,0.4-0.2,0.5C291,177.4,291.4,176.9,291.4,176.9z"/>
			</g>
			<g>
				<path fill="#989A9C" d="M291.4,176.9l-0.3-0.2c0,0-0.3,0.4-0.2,0.5C291,177.4,291.4,176.9,291.4,176.9z"/>
			</g>
			<g>
				<path fill="#989A9C" d="M291.6,178.2l0.1-0.3c0,0-0.5-0.2-0.6-0.1C291,178,291.6,178.2,291.6,178.2z"/>
			</g>
			<g>
				<path fill="#989A9C" d="M291.6,178.2l0.1-0.3c0,0-0.5-0.2-0.6-0.1C291,178,291.6,178.2,291.6,178.2z"/>
			</g>
			<g>
				<path fill="#989A9C" d="M291.6,178.2l0.1-0.3c0,0-0.5-0.2-0.6-0.1C291,178,291.6,178.2,291.6,178.2z"/>
			</g>
			<g>
				<path fill="#989A9C" d="M289.7,178.5l0.3,0.2c0,0,0.3-0.4,0.2-0.5C290.1,178.1,289.7,178.5,289.7,178.5z"/>
			</g>
			<g>
				<path fill="#989A9C" d="M289.7,178.5l0.3,0.2c0,0,0.3-0.4,0.2-0.5C290.1,178.1,289.7,178.5,289.7,178.5z"/>
			</g>
			<g>
				<path fill="#989A9C" d="M289.7,178.5l0.3,0.2c0,0,0.3-0.4,0.2-0.5C290.1,178.1,289.7,178.5,289.7,178.5z"/>
			</g>
			<g>
				<path fill="#989A9C" d="M289.4,177.9l0.1,0.3c0,0,0.5-0.2,0.5-0.3C289.9,177.7,289.4,177.9,289.4,177.9z"/>
			</g>
			<g>
				<path fill="#989A9C" d="M289.4,177.9l0.1,0.3c0,0,0.5-0.2,0.5-0.3C289.9,177.7,289.4,177.9,289.4,177.9z"/>
			</g>
			<g>
				<path fill="#989A9C" d="M289.4,177.9l0.1,0.3c0,0,0.5-0.2,0.5-0.3C289.9,177.7,289.4,177.9,289.4,177.9z"/>
			</g>
			<g>
				<circle fill="#989A9C" cx="290.5" cy="177.7" r="0.2"/>
			</g>
			<g>
				<circle fill="#989A9C" cx="290.9" cy="177.6" r="0.1"/>
			</g>
			<g>
				<circle fill="#989A9C" cx="290.5" cy="177.4" r="0.1"/>
			</g>
			<g>
				<circle fill="#989A9C" cx="290.2" cy="177.6" r="0.1"/>
			</g>
			<g>
				<circle fill="#989A9C" cx="290.3" cy="178" r="0.1"/>
			</g>
			<g>
				<circle fill="#989A9C" cx="290.7" cy="178" r="0.1"/>
			</g>
		</g>
		<g>
			<path fill="#E63428" d="M310.5,174.2c0,0-0.5,0-0.7,0.3s-0.2,0.5-0.2,0.7c0,0.2,0.1,0.5,0.1,0.5s0.5,0,0.6,0c0.2,0,0.3,0,0.3,0
				L310.5,174.2z"/>
		</g>
	</g>
	<g>
		<g>
			<path fill="#E3E4E4" d="M499.9,176.3l-0.8-0.2c6.8-17.3,17.7-27.6,29.2-27.6v0.6C517.3,149.1,506.6,159.3,499.9,176.3z"/>
		</g>
		<g>
			<path fill="#E3E4E4" d="M556.5,176.3c-6.7-17-17.3-27.2-28.4-27.2v-0.6c11.5,0,22.4,10.3,29.2,27.6L556.5,176.3z"/>
		</g>
		<g>
			<path fill="#E3E4E4" d="M503.2,176.2l-0.8-0.2c6-16.4,15.6-26.2,25.7-26.2v0.6C518.4,150.5,509.1,160.1,503.2,176.2z"/>
		</g>
		<g>
			<path fill="#E3E4E4" d="M552.9,176.2c-5.9-16.1-15.2-25.8-24.9-25.8v-0.6c10.1,0,19.7,9.8,25.7,26.2L552.9,176.2z"/>
		</g>
		<ellipse fill="#E3E4E4" cx="528.2" cy="153.2" rx="4.8" ry="2.8"/>
	</g>
	<line fill="none" stroke="#E3E4E4" stroke-width="0.5" stroke-miterlimit="10" x1="509.9" y1="158.6" x2="516" y2="171.7"/>
	<line fill="none" stroke="#E3E4E4" stroke-width="0.5" stroke-miterlimit="10" x1="507.9" y1="160.8" x2="516" y2="171.5"/>
	<line fill="none" stroke="#E3E4E4" stroke-width="0.5" stroke-miterlimit="10" x1="516.2" y1="171.7" x2="519" y2="153"/>
	<line fill="none" stroke="#E3E4E4" stroke-width="0.5" stroke-miterlimit="10" x1="516.3" y1="171.1" x2="522.8" y2="151.6"/>
	<line fill="none" stroke="#E3E4E4" stroke-width="0.5" stroke-miterlimit="10" x1="546.5" y1="158.6" x2="540.4" y2="171.7"/>
	<line fill="none" stroke="#E3E4E4" stroke-width="0.5" stroke-miterlimit="10" x1="548.5" y1="160.8" x2="540.4" y2="171.5"/>
	<line fill="none" stroke="#E3E4E4" stroke-width="0.5" stroke-miterlimit="10" x1="540.2" y1="171.7" x2="537.4" y2="153"/>
	<line fill="none" stroke="#E3E4E4" stroke-width="0.5" stroke-miterlimit="10" x1="540.1" y1="171.1" x2="533.6" y2="151.6"/>
</g>
</svg>
