<?xml version="1.0" encoding="utf-8"?>
<!-- Generator: Adobe Illustrator 19.2.1, SVG Export Plug-In . SVG Version: 6.00 Build 0)  -->
<svg version="1.2" baseProfile="tiny" id="Layer_1" xmlns="http://www.w3.org/2000/svg" xmlns:xlink="http://www.w3.org/1999/xlink"
	 x="0px" y="0px" viewBox="0 0 314.7 94.1" xml:space="preserve">
<g>
	<g id="Shape_1_copy_12_38_">
		<path fill="#E7363E" d="M74.9,41.4c-1,0.8-1.3,3-0.2,3.9c1.1,0.9,2.8,0.7,3.8-0.5c1-1.2,0.9-2.8-0.2-3.7
			C77.3,40.2,76.2,40.4,74.9,41.4z M69.9,42.1c-1.1,0.1-1.9,0.6-2.5,0.9c0-0.1,0-0.1,0-0.2c0.1-1.8,0.2-3.7,0.3-5.5
			c0-0.2,0-0.4,0.1-0.7c0.6-2.6,1.3-4.1,1.2-5.2c0-0.5-0.1-0.8-0.3-1.4c-0.2-0.5-0.6-0.8-1-1c-0.1-0.1-0.3-0.2-0.4-0.3c0,0,0,0,0,0
			l0,0c-0.1,0-0.2-0.1-0.3-0.1c-1-0.4-2-0.1-2.7,0.7c-0.6,0.8-0.8,1.7-1.1,2.6c-0.4,1.5-0.7,3.7-1.2,5.2c-0.3,1.1-1,2.5-1.9,3.1
			c-0.8,0.6-1.8,0.3-2.2-0.9c-0.4-1.4-0.3-3.1-0.1-4.6c0.2-1,0.9-1.1,1.1-2.8c0.2-2.1-0.8-3.3-2.6-3.5c-1.2-0.1-2.3,0.4-2.9,1.6
			c-0.7,1.3-0.9,2.6-1,4c-0.1,1.1-0.1,2.4-0.1,3.4c0,0.1-0.1,0.2-0.1,0.2c-0.9,1.6-2.7,3.2-3.1,2.9c-0.2-0.2-0.2-0.7-0.2-0.9
			c0-1.9,0.3-5.4,0.6-7.9c0.2-1.5-0.7-2.7-2.7-2.7c-1.3,0-2,0.8-2.7,1.5c-1.2,1.3-2.2,2.8-3.1,3.9c-0.2,0.2-0.4,0.5-0.7,0.4
			c-0.3-0.1-0.3-0.5-0.3-0.7c0-1.2,0-1,0-2.3c0-0.3,0-0.9-0.1-1.4c-0.1-1.4-1.5-2.1-2.7-1.9c-0.8,0.1-1.4,0.6-1.8,1.3
			c-0.7,1-0.9,1.6-1.5,2.6c-0.4,0.8-0.6,1-0.8,1.4c-0.2,0.3-0.5,0.6-0.8,0.7c-0.4,0.1-0.4-0.3-0.4-0.4c0-0.6,0-1.9,0-2.1
			c0-0.7,0.1-2.4-1.3-2.6c-3.4-0.4-3.9,3.4-3.9,5.2c0,2,0,3.4,0,5.4c0,1.5,0,2.4,0.1,3.9c0.1,1.7,1.5,2.6,3.1,2.2
			c0.8-0.2,1.3-0.8,1.7-1.6c0.3-0.8,1-2.5,1.4-3.3c0.4-1,0.9-2.1,1.3-2.9c0.2-0.3,0.6-0.5,0.8-0.5c0.4,0,0.5,0.3,0.5,0.5
			c0,0.9-0.1,1.7-0.2,2.6c-0.2,1.7,0,2.9,0.2,3.5c0.2,0.4,0.6,0.9,1.3,1.2c1.2,0.5,2.7,0.1,3.3-1.2c0.9-1.8,1.2-3.3,2.1-5.1
			c0.2-0.5,0.6-1.2,1.2-1.3c0.2,0,0.7,0.1,0.7,0.5c0,0.3-0.2,3.5,0.1,5c0.2,1.3,1.4,2.7,3.8,2.5c0.7,0,1.3-0.3,1.9-0.8
			c0.8-0.3,1.7-1.2,2.8-3c0.3,1.2,1.2,2.3,1.7,2.8c1.5,2,3.9,2.1,5.7,0.4c0.9-0.8,1.3-1.5,1.6-2.2c-0.1,0.7-0.1,1.5-0.2,2.3
			c-5.4,3.4-8.2,6.9-8.5,10.5c-0.3,3.2,1.4,6.5,5.1,8.7c0.9,0.5,1.7,0.8,2.6,0.8c0.5,0,1.1-0.1,1.6-0.4c3.1-1.5,3.7-9.7,4.5-16.9
			c1.3-0.7,2-1.1,3.8-2c0.9-0.4,1.9-0.4,1.9-2.2C72.6,43.3,71.9,41.9,69.9,42.1z M60.5,58.5c-0.1,0.3-0.4,0.4-0.8,0.2
			c-0.9-0.7-1.2-1.8-1.1-2.5c0-0.5,0.4-1.9,2.6-3.9C61.2,53.7,60.9,57.1,60.5,58.5z M138,40.9c-0.7-1.1-1.7-1.1-2.4-0.9
			c-0.9,0.4-2.2,1.2-2.5,1l0,0c0-0.2,0-0.4,0-0.5c0-1.9,0.3-5.2,0.5-7.7c0-0.1,0-0.1,0-0.2c0.1-0.9-0.2-1.7-0.9-2.2
			c-0.4-0.3-1-0.5-1.8-0.5c-1.3,0-2,0.8-2.7,1.5c-1.2,1.3-2.2,2.8-3.1,3.9c-0.2,0.2-0.4,0.5-0.7,0.4c-0.3-0.1-0.3-0.5-0.3-0.7
			c0-1.2,0-1,0-2.3c0-0.3,0-0.9-0.1-1.4c-0.1-1.4-1.5-2.1-2.7-1.9c-0.8,0.1-1.4,0.6-1.8,1.3c-0.7,1-0.9,1.6-1.5,2.6
			c-0.6,1-0.6,1.1-1.1,1.9c-0.1,0.1-0.4,0.8-0.6,0.7c-0.2-0.1-0.3-0.6-0.3-0.7c0-0.5-0.2-1.9-0.2-2.1c-0.1-1.1-0.3-3.4-1.7-3.9
			c-0.4-0.2-0.8-0.3-1.3-0.3c-1.7-0.1-3.3,1.5-4.5,2.4c-0.2,0.1-0.4,0.3-0.7,0.5c-0.7-1.2-1.8-2.1-3.2-2.6c-4.3-1.5-8.1,2-8.7,6
			c-0.5,1.5-0.7,3-0.7,4.5c-1.5,1.5-2.8,2-4.1,2.2c-1.6,0.2-4.2,0.1-4.4-2.2c-0.3-3.4,1.4-5.1,1.8-5.5c0.2-0.2,0.6-0.5,0.8-0.2
			c0.2,0.2,0.1,0.7-0.2,1.1c-0.4,0.6-0.4,1.3,0.1,1.9c0.5,0.6,1.1,0.6,1.8,0.5c1.4-0.4,2.1-1.4,2.5-2.6c1.1-2.7-0.3-5.3-2.9-5.8
			c-1.7-0.3-3.6,0.2-4.8,1.3c-3.4,3.1-4.7,7.8-3.8,11.7c0.8,3.2,3.8,5,7.5,4.8c2.9-0.2,5.2-1.5,6.9-2.9c0.3,0.6,0.7,1.1,1.2,1.6
			c4.1,4,9.2-1,10.9-4.8c0.6-1.3,0.8-2.9,0.8-4.4c0.3-0.2,0.6-0.4,1.2-0.8c0.4-0.2,0.7-0.1,0.7,0.3c-0.1,1.9-0.2,4.2-0.2,4.9
			c-0.1,0.8-0.1,3.2,0,4.3c0.1,1.7,1.7,2.3,3.2,2c0.8-0.2,1.3-0.8,1.7-1.6c0.3-0.8,1.1-2.5,1.4-3.3c0.6-1.4,1.4-2.6,1.6-2.9
			c0.2-0.3,0.6-0.5,0.8-0.5c0.4,0,0.5,0.3,0.5,0.5c0,0.9-0.1,1.7-0.2,2.6c-0.2,1.7,0,2.9,0.2,3.5c0.2,0.4,0.6,0.9,1.3,1.2
			c1.2,0.5,2.7,0.1,3.3-1.2c0.9-1.8,1.2-3.3,2.1-5.1c0.2-0.5,0.6-1.2,1.2-1.3c0.2,0,0.7,0.1,0.7,0.5c0,0.3-0.1,3,0,4.5
			c0,0.2,0,0.4,0.1,0.5c0.2,1,0.9,2,2.3,2.3c0.4,0.1,0.9,0.2,1.4,0.1c0.4,0,0.9-0.2,1.3-0.4c0.5-0.2,1-0.4,1.5-0.7
			c0.5-0.3,2.1-1.1,2.9-2.4C138.5,42.9,138.5,41.6,138,40.9z M103.9,39.9c-0.9,1.8-3.2,4.3-4.6,1.6c-0.9-1.7-0.4-4.1,0.4-5.9
			c0.1-0.1,0.1-0.2,0.1-0.3v0c0.2-0.3,0.3-0.6,0.5-0.9c0-0.1,0.1-0.1,0.1-0.2c0.9-1.3,2.1-1.4,3.3-0.4
			C105.3,35.3,104.7,38.3,103.9,39.9z"/>
	</g>
	<path id="Logo_78_" fill-rule="evenodd" fill="#818282" d="M174.9,29.1c2.2,0,4.2,1,5.7,2.5v0c0-0.7,0.5-1.3,1.2-1.2l0.2,0
		c1,0,1.3,1,1.3,1.3L183,42.8c-0.1,0.7,0.7,1.1,1.2,0.6c1.8-1.8,4-9.4-1-13.9c-4.7-4.1-11-3.5-14.3-1.2c-3.6,2.4-5.9,7.9-3.7,13
		c2.4,5.6,9.3,7.3,13.4,5.7c2.1-0.8,3,2,0.9,2.9c-3.3,1.4-12.4,1.2-16.5-6.2c-2.8-5-2.6-13.7,5-18.2c5.8-3.4,13.5-2.4,18.1,2.5
		c4.8,5.1,4.4,14.5-0.3,18.2c-2.1,1.7-5.3,0-5.3-2.4l0-0.8c-1.5,1.5-3.5,2.3-5.6,2.3c-4.3,0-8-3.8-7.9-8.1
		C166.8,32.8,170.6,29.1,174.9,29.1L174.9,29.1L174.9,29.1L174.9,29.1z M180.2,36.9c-0.1-3.1-2.4-5-5.2-5l-0.1,0
		c-3.2,0-5,2.5-5.1,5.4c0,3.2,2.1,5.3,5,5.3c3.2,0,5.3-2.3,5.4-5L180.2,36.9z M258.1,44.8c0-0.7-0.6-1.5-1.7-1.5
		c-1.1,0-1.7,0.7-1.8,1.4l0,1.2c0,0.7,0.6,1.5,1.7,1.5c1,0,1.8-0.7,1.8-1.4L258.1,44.8z M269.6,29.4c-4.9,0-9.1,4.2-9.1,9l-0.1,7.4
		c0,1,0.8,1.7,1.6,1.7c1,0,1.8-0.7,1.8-1.6l0.1-7.5c0-2.7,2.4-5.6,5.7-5.6c1.1,0,1.8-0.8,1.8-1.7C271.3,30.3,270.8,29.4,269.6,29.4z
		 M289.8,29.5c-1,0-1.7,0.8-1.7,1.6l-0.1,7.4c0,2.9-2.5,5.6-5.8,5.6c-2.7,0-5.6-2.4-5.6-5.6l0.1-7.4c0-0.8-0.6-1.7-1.7-1.7
		c-0.8,0-1.7,0.7-1.7,1.6l-0.1,7.4c0,4.8,4.2,9,9,9.1c5.2,0,9.2-4.4,9.2-8.9l0.1-7.4C291.5,30.4,290.8,29.5,289.8,29.5z M240.6,25.5
		c0-0.7-0.6-1.5-1.8-1.5c-1.1,0-1.7,0.8-1.7,1.5l0,0.9c0,0.7,0.6,1.4,1.7,1.4c1,0,1.8-0.6,1.8-1.3L240.6,25.5z M209,28.9
		c-2.1,0-3.8,1.2-4.8,2c-1.1-1.2-2.5-2-4-2.1c-1.6-0.1-3,0.4-4,1.2c-0.3-0.8-0.7-1.2-1.5-1.2c-0.8,0-1.7,0.7-1.7,1.8
		c0,1.1-0.1,14.6-0.1,14.6c0,0.8,0.7,1.7,1.7,1.7c1.1,0,1.8-0.8,1.8-1.7l0.1-10.8c0-1.1,1.8-2.3,3.3-2.2c1,0,2.1,1,2.1,2.5
		l-0.1,10.6c0,0.9,0.9,1.7,1.8,1.7c1,0,1.8-0.8,1.8-1.6l0.1-10.7c0-1.3,2-2.4,3.4-2.3c1.1,0.1,2,1.2,2,2.4l-0.1,10.7
		c0,0.9,0.9,1.7,1.8,1.7c0.8,0,1.8-0.5,1.8-1.7l0.1-10.7C214.6,30.7,210.7,28.9,209,28.9z M238.8,29.1c-1,0-1.7,0.8-1.7,1.7
		l-0.1,14.6c0,1,0.7,1.7,1.7,1.7c1.1,0,1.8-0.8,1.8-1.8l0.1-14.5C240.6,30.1,239.7,29.2,238.8,29.1z M232.7,29.1
		c-1,0-1.7,0.8-1.7,1.5l0,0.6c-1.5-1.3-3.5-2.2-5.7-2.2c-4.8,0-9,3.9-9.1,9c0,4.6,4,9,8.9,9.1c2,0,4.2-0.7,5.7-2l0,0.4
		c0,0.8,0.6,1.7,1.7,1.7c1.2,0,1.8-1,1.8-1.7l0.1-14.7C234.5,30.1,233.8,29.1,232.7,29.1z M225.3,43.8c-3.1,0-5.7-2.6-5.6-5.7
		c0-3.1,2.6-5.7,5.7-5.6c3.1,0,5.7,2.6,5.6,5.7C231,41.3,228.4,43.8,225.3,43.8z M250.7,43.8c-2.2,0-4.2-1.7-4.2-4.2l0.1-13.9
		c0-1-0.8-1.6-1.7-1.6c-1.1,0-1.8,0.8-1.8,1.6L243,39.5c0,4.3,3.5,7.7,7.6,7.8c1.2,0,1.8-1,1.8-1.8
		C252.4,44.7,251.8,43.8,250.7,43.8z M266.4,53.7c-2.1,0-3.9,1.8-3.9,3.8l0,3.1c0,0.4,0.3,0.7,0.7,0.7c0.4,0,0.7-0.3,0.7-0.7l0-3.2
		c0-1.1,1-2.4,2.4-2.4c0.5,0,0.8-0.3,0.8-0.7C267.1,54.1,266.9,53.7,266.4,53.7z M274.8,57.6c0-2-1.7-3.8-3.8-3.9c0,0,0,0-0.1,0
		c-2,0-3.8,1.7-3.8,3.8c0,2,1.7,3.8,3.8,3.9l0.1,0C273,61.4,274.7,59.7,274.8,57.6z M270.9,60c-1.3,0-2.4-1.1-2.4-2.4l0-0.1
		c0-1.1,0.7-2,1.7-2.3c0.2-0.1,0.5-0.1,0.7-0.1c1.3,0,2.4,1.1,2.4,2.4l0,0.1c0,1.1-0.7,2-1.7,2.3C271.4,60,271.2,60,270.9,60z
		 M282.4,53.8c-0.4,0-0.7,0.4-0.7,0.7l0,3.1c0,1.2-1,2.4-2.5,2.4c-1.2,0-2.4-1-2.4-2.4l0-3.2c0-0.3-0.2-0.7-0.7-0.7
		c-0.3,0-0.7,0.3-0.7,0.7l0,3.1c0,2,1.8,3.8,3.8,3.9c2.2,0,3.9-1.9,3.9-3.8l0-3.2C283.1,54.2,282.8,53.9,282.4,53.8z M287.5,53.9
		c-0.9,0-1.8,0.3-2.4,0.9l0-0.3c0-0.3-0.3-0.7-0.7-0.7c-0.4,0-0.8,0.4-0.8,0.7l-0.1,9.3c0,0.4,0.3,0.7,0.7,0.7
		c0.5,0,0.8-0.4,0.8-0.7l0-3.1c0.6,0.6,1.6,0.9,2.4,0.9c2.1,0,3.8-1.8,3.9-3.8C291.3,55.6,289.5,53.9,287.5,53.9z M287.4,60.1
		c-1.2,0-2.2-0.9-2.4-2.1l0-0.7c0.2-1.2,1.2-2.1,2.4-2.1c1.3,0,2.4,1.1,2.4,2.4C289.9,59.1,288.8,60.2,287.4,60.1z M261.2,53.7
		c-0.4,0-0.7,0.3-0.7,0.7l0,0.3c-0.7-0.6-1.5-0.9-2.4-0.9c-2,0-3.8,1.7-3.9,3.8c0,2,1.7,3.8,3.8,3.9c0.9,0,1.8-0.3,2.4-0.9
		c0,0,0,0.3,0,0.3c-0.1,0.9-0.8,1.7-1.9,2c-0.7,0.2-2.9-0.3-3-0.3c-0.5-0.1-0.8,0.3-0.8,0.7c0,0.3,0.2,0.5,0.7,0.7
		c0.6,0.2,1.7,0.3,2.7,0.4c0.7,0,3.6-0.5,3.7-3.6l0-6.3C262,54.1,261.7,53.7,261.2,53.7z M258,59.9c-1.3,0-2.4-1.1-2.4-2.4
		c0-1.3,1.1-2.4,2.4-2.4c1.3,0,2.4,1.1,2.4,2.4C260.5,58.9,259.4,59.9,258,59.9z"/>
</g>
</svg>
