<?xml version="1.0" encoding="utf-8"?>
<!-- Generator: Adobe Illustrator 19.2.1, SVG Export Plug-In . SVG Version: 6.00 Build 0)  -->
<svg version="1.2" baseProfile="tiny" id="Layer_1" xmlns="http://www.w3.org/2000/svg" xmlns:xlink="http://www.w3.org/1999/xlink"
	 x="0px" y="0px" viewBox="0 0 520.6 497.1" xml:space="preserve">
<g>
	<circle fill="#FFFFFF" cx="261.8" cy="241.2" r="125.5"/>
	<g>
		<path fill="#3488C9" d="M228.7,268.8c-3.7,0-6.7,3-6.7,6.7c0,3.7,3,6.7,6.7,6.7c3.7,0,6.6-3,6.6-6.7
			C235.4,271.8,232.4,268.8,228.7,268.8z"/>
		<path fill="#3488C9" d="M327.4,223.8c0-7-5.7-12.7-12.7-12.7l-29.9,0.1l2-21.6l0-0.2c0-6.6-4.9-18.6-13-18.6H266l-4.1,21.8
			l-18.7,28.9c-1.4,2-2.6,3.8-3.5,5.4c-1.4-0.9-3.1-1.3-4.8-1.3h-29.3c-5.2,0-9.3,4.2-9.3,9.3v45.2c0,5.2,4.2,9.3,9.3,9.3h29.3
			c3,0,5.7-1.5,7.5-3.8c2.7,2,5.9,3.1,9.2,3.1h50.1c7,0,12.7-5.7,12.7-12.7c0-1.7-0.3-3.3-0.9-4.7c5.4-1.4,9.4-6.4,9.4-12.3
			c0-2.1-0.5-4.1-1.5-5.9c3.6-2.3,5.9-6.3,5.9-10.7c0-3.6-1.5-7-4.2-9.4C325.9,230.8,327.4,227.4,327.4,223.8z M234.9,285.2h-29.3
			c-2.7,0-5-2.2-5-5V235c0-2.7,2.2-5,5-5h29.3c1.2,0,2.4,0.5,3.3,1.4l1.3,50.4C238.9,283.8,237,285.2,234.9,285.2z M318.5,235.1
			c2.9,1.4,4.6,4.3,4.6,7.4c0,3.5-2.2,6.6-5.5,7.8l-2.9,1.1l2,2.4c1.3,1.5,1.9,3.4,1.9,5.3c0,4.6-3.7,8.3-8.3,8.3h-4.8l2.8,3.5
			c1.2,1.5,1.8,3.3,1.8,5.1c0,4.6-3.7,8.3-8.3,8.3h-50.1c-2.9,0-5.7-1.2-7.7-3.2l-1.3-50.3c0.9-2,2.3-4.2,4.2-6.9l19.2-29.7
			l3.6-19.1h4.3c4.6,0,8.6,8.8,8.6,14.1l-2.4,26.3l34.7-0.2c4.6,0,8.3,3.7,8.3,8.3c0,3.2-1.8,6-4.6,7.4l-3.9,2L318.5,235.1z"/>
	</g>
</g>
</svg>
